<svg width="22" height="21" viewBox="0 0 22 21" fill="none" xmlns="http://www.w3.org/2000/svg">
<path d="M21.4228 16.7952C21.4228 17.5587 20.9975 19.0289 20.0429 19.8364C19.8518 19.9834 19.6596 19.9005 19.7436 19.6862C20.0219 19.0058 20.6593 17.4316 20.3601 17.0693C20.15 16.7942 19.2784 16.8141 18.5349 16.8782C18.1947 16.9213 17.8975 16.9412 17.6654 16.9885C17.4523 17.0063 17.4082 16.8173 17.6224 16.6703C17.8975 16.476 18.1947 16.329 18.536 16.2208C19.7436 15.8596 21.1403 16.077 21.3398 16.308C21.3776 16.3521 21.4238 16.476 21.4238 16.7942L21.4228 16.7952ZM19.4055 18.1541C19.1282 18.3659 18.837 18.5589 18.5339 18.7317C16.3055 20.0706 13.4198 20.7721 10.9121 20.7721C6.87648 20.7721 3.26721 19.284 0.528487 16.7942C0.29431 16.6031 0.488582 16.3258 0.762664 16.476C3.71351 18.1982 7.36584 19.2399 11.1473 19.2399C13.6754 19.2328 16.1803 18.7571 18.5349 17.837C18.7051 17.7729 18.8962 17.6858 19.0632 17.6248C19.4485 17.4516 19.7877 17.88 19.4055 18.1541ZM12.9262 6.57125C12.9262 5.47808 12.9693 4.83435 12.607 4.28199C12.2857 3.82728 11.7322 3.55425 10.9604 3.59731C10.1224 3.64351 9.22245 4.19273 8.99248 5.19979C8.94837 5.43082 8.8129 5.65765 8.53462 5.707L5.97652 5.38146C5.7938 5.33946 5.51657 5.19979 5.60688 4.83435C6.15609 1.94441 8.62598 0.937346 10.9604 0.80188H11.5096C12.7908 0.80188 14.4363 1.16837 15.4896 2.12923C16.7676 3.32217 16.6321 4.92466 16.6321 6.66576V10.7896C16.6321 12.0266 17.133 12.5748 17.6381 13.2196C17.7747 13.4496 17.8209 13.7205 17.5909 13.9074C16.9295 14.4975 16.2584 15.0766 15.5778 15.6443C15.3951 15.784 15.0653 15.7987 14.9372 15.6916C14.1286 15.0142 13.9312 14.6383 13.4303 13.9505C12.5587 14.8651 11.8278 15.3702 10.9573 15.6443C10.345 15.7997 9.71544 15.8759 9.08384 15.8711C6.88908 15.8711 5.15008 14.5028 5.15008 11.7967C5.15008 9.64496 6.29471 8.18214 7.98541 7.49011C9.67611 6.79703 12.1334 6.5765 12.9252 6.5723L12.9262 6.57125ZM12.4243 12.0235C12.9703 11.1078 12.9252 10.358 12.9252 8.67885C12.2416 8.67885 11.5537 8.7261 10.9604 8.86577C9.86303 9.18396 8.99248 9.87494 8.99248 11.3388C8.99248 12.4834 9.5879 13.2626 10.5939 13.2626C10.7325 13.2626 10.8543 13.2458 10.9604 13.2154C11.664 13.0201 12.1029 12.6672 12.4243 12.0235Z" fill="#17171A"/>
</svg>
