<svg width="16" height="16" viewBox="0 0 16 16" fill="none" xmlns="http://www.w3.org/2000/svg">
<path d="M1.73193 3.12231C1.73193 2.68713 1.90481 2.26977 2.21253 1.96204C2.52026 1.65432 2.93762 1.48145 3.3728 1.48145H5.01367C5.44886 1.48145 5.86622 1.65432 6.17394 1.96204C6.48166 2.26977 6.65454 2.68713 6.65454 3.12231V4.76318C6.65454 5.19837 6.48166 5.61573 6.17394 5.92345C5.86622 6.23118 5.44886 6.40405 5.01367 6.40405H3.3728C2.93762 6.40405 2.52026 6.23118 2.21253 5.92345C1.90481 5.61573 1.73193 5.19837 1.73193 4.76318V3.12231ZM9.93628 3.12231C9.93628 2.68713 10.1092 2.26977 10.4169 1.96204C10.7246 1.65432 11.142 1.48145 11.5771 1.48145H13.218C13.6532 1.48145 14.0706 1.65432 14.3783 1.96204C14.686 2.26977 14.8589 2.68713 14.8589 3.12231V4.76318C14.8589 5.19837 14.686 5.61573 14.3783 5.92345C14.0706 6.23118 13.6532 6.40405 13.218 6.40405H11.5771C11.142 6.40405 10.7246 6.23118 10.4169 5.92345C10.1092 5.61573 9.93628 5.19837 9.93628 4.76318V3.12231ZM1.73193 11.3267C1.73193 10.8915 1.90481 10.4741 2.21253 10.1664C2.52026 9.85867 2.93762 9.68579 3.3728 9.68579H5.01367C5.44886 9.68579 5.86622 9.85867 6.17394 10.1664C6.48166 10.4741 6.65454 10.8915 6.65454 11.3267V12.9675C6.65454 13.4027 6.48166 13.8201 6.17394 14.1278C5.86622 14.4355 5.44886 14.6084 5.01367 14.6084H3.3728C2.93762 14.6084 2.52026 14.4355 2.21253 14.1278C1.90481 13.8201 1.73193 13.4027 1.73193 12.9675V11.3267ZM9.93628 11.3267C9.93628 10.8915 10.1092 10.4741 10.4169 10.1664C10.7246 9.85867 11.142 9.68579 11.5771 9.68579H13.218C13.6532 9.68579 14.0706 9.85867 14.3783 10.1664C14.686 10.4741 14.8589 10.8915 14.8589 11.3267V12.9675C14.8589 13.4027 14.686 13.8201 14.3783 14.1278C14.0706 14.4355 13.6532 14.6084 13.218 14.6084H11.5771C11.142 14.6084 10.7246 14.4355 10.4169 14.1278C10.1092 13.8201 9.93628 13.4027 9.93628 12.9675V11.3267Z" stroke="#17171A" strokeWidth="1.64087" strokeLinecap="round" sstrokelinejoin="round"/>
</svg>
