<svg width="23" height="22" viewBox="0 0 23 22" fill="none" xmlns="http://www.w3.org/2000/svg">
<path d="M0.9375 18.1856H9.93245V19.9846H0.9375V18.1856ZM0.9375 12.7886H9.93245V14.5876H0.9375V12.7886ZM20.7264 9.19063H2.73649C2.25937 9.19063 1.80179 9.0011 1.46441 8.66372C1.12704 8.32634 0.9375 7.86876 0.9375 7.39164V1.99467C0.9375 1.51755 1.12704 1.05997 1.46441 0.722591C1.80179 0.385215 2.25937 0.195679 2.73649 0.195679H20.7264C21.2035 0.195679 21.6611 0.385215 21.9985 0.722591C22.3359 1.05997 22.5254 1.51755 22.5254 1.99467V7.39164C22.5254 7.86876 22.3359 8.32634 21.9985 8.66372C21.6611 9.0011 21.2035 9.19063 20.7264 9.19063ZM2.73649 1.99467V7.39164H20.7264V1.99467H2.73649ZM20.7264 21.7836H15.3294C14.8523 21.7836 14.3947 21.594 14.0573 21.2567C13.72 20.9193 13.5304 20.4617 13.5304 19.9846V14.5876C13.5304 14.1105 13.72 13.6529 14.0573 13.3155C14.3947 12.9782 14.8523 12.7886 15.3294 12.7886H20.7264C21.2035 12.7886 21.6611 12.9782 21.9985 13.3155C22.3359 13.6529 22.5254 14.1105 22.5254 14.5876V19.9846C22.5254 20.4617 22.3359 20.9193 21.9985 21.2567C21.6611 21.594 21.2035 21.7836 20.7264 21.7836ZM15.3294 14.5876V19.9846H20.7264V14.5876H15.3294Z" fill="#17171A"/>
</svg>
