<svg width="22" height="23" viewBox="0 0 22 23" fill="none" xmlns="http://www.w3.org/2000/svg">
<path d="M4.49336 19.5192L2.01075 22.0018C1.66894 22.3436 1.27748 22.4199 0.836371 22.2306C0.395978 22.0421 0.175781 21.705 0.175781 21.2192V4.40767C0.175781 3.814 0.387343 3.3056 0.810465 2.88248C1.23287 2.46008 1.7409 2.24888 2.33457 2.24888H13.2365C13.1645 2.60868 13.1285 2.96847 13.1285 3.32827C13.1285 3.68807 13.1645 4.04787 13.2365 4.40767H2.33457V17.3604H19.6049V8.6173C20.0187 8.52736 20.4054 8.40574 20.7652 8.25247C21.125 8.09991 21.4578 7.89771 21.7637 7.64585V17.3604C21.7637 17.9541 21.5525 18.4625 21.1301 18.8856C20.7069 19.308 20.1986 19.5192 19.6049 19.5192H4.49336ZM18.5255 6.56646C17.626 6.56646 16.8614 6.25163 16.2318 5.62198C15.6021 4.99234 15.2873 4.22777 15.2873 3.32827C15.2873 2.42878 15.6021 1.66421 16.2318 1.03456C16.8614 0.404911 17.626 0.0900879 18.5255 0.0900879C19.425 0.0900879 20.1896 0.404911 20.8192 1.03456C21.4488 1.66421 21.7637 2.42878 21.7637 3.32827C21.7637 4.22777 21.4488 4.99234 20.8192 5.62198C20.1896 6.25163 19.425 6.56646 18.5255 6.56646Z" fill="#17171A"/>
</svg>
