<svg width="21" height="24" viewBox="0 0 21 24" fill="none" xmlns="http://www.w3.org/2000/svg">
<path d="M14.457 17.5377L15.4194 15.4977C15.4453 15.4393 15.4877 15.3898 15.5412 15.355C15.5948 15.3203 15.6572 15.3018 15.7211 15.3018C15.7849 15.3018 15.8474 15.3203 15.901 15.355C15.9545 15.3898 15.9968 15.4393 16.0228 15.4977L16.9862 17.5377L19.1375 17.867C19.4138 17.9093 19.5239 18.2651 19.3249 18.4683L17.7675 20.0564L18.1349 22.2987C18.1815 22.5866 17.8925 22.8068 17.6458 22.6703L15.7211 21.6116L13.7964 22.6703C13.5487 22.8068 13.2607 22.5866 13.3073 22.2987L13.6746 20.0564L12.1184 18.4683C11.9172 18.2651 12.0284 17.9093 12.3047 17.867L14.457 17.5377Z" stroke="black" strokeWidth="1.5" strokeLinecap="round" sstrokelinejoin="round"/>
<path d="M18.3677 12.125V5.50711C18.3678 5.42354 18.3514 5.34078 18.3194 5.26357C18.2874 5.18636 18.2405 5.11622 18.1814 5.05716L14.8486 1.72442C14.7296 1.60526 14.5682 1.53823 14.3998 1.53809H2.06392C1.89545 1.53809 1.73389 1.60501 1.61476 1.72414C1.49563 1.84326 1.42871 2.00483 1.42871 2.1733V22.0766C1.42871 22.2451 1.49563 22.4067 1.61476 22.5258C1.73389 22.6449 1.89545 22.7118 2.06392 22.7118H8.83952" stroke="black" strokeWidth="1.5" strokeLinecap="round" sstrokelinejoin="round"/>
<path d="M14.1331 1.53809V5.13762C14.1331 5.30609 14.2 5.46766 14.3191 5.58679C14.4382 5.70591 14.5998 5.77284 14.7683 5.77284H18.3678" stroke="black" strokeWidth="1.5" strokeLinecap="round" sstrokelinejoin="round"/>
</svg>
