<svg width="23" height="20" viewBox="0 0 23 20" fill="none" xmlns="http://www.w3.org/2000/svg">
<path d="M12.6585 16.293C12.6585 15.926 12.7017 15.5698 12.7556 15.2136H2.94395V4.41969L11.5791 9.81666L20.2143 4.41969V9.91381C20.9914 10.0433 21.7146 10.3132 22.373 10.691V2.2609C22.373 1.07357 21.4016 0.102112 20.2143 0.102112H2.94395C1.75661 0.102112 0.785156 1.07357 0.785156 2.2609V15.2136C0.785156 16.401 1.75661 17.3724 2.94395 17.3724H12.7556C12.7017 17.0162 12.6585 16.66 12.6585 16.293ZM20.2143 2.2609L11.5791 7.65787L2.94395 2.2609H20.2143ZM18.0555 13.0548V15.2136H22.373V17.3724H18.0555V19.5312L14.8173 16.293L18.0555 13.0548Z" fill="#17171A"/>
</svg>
