<svg width="20" height="20" viewBox="0 0 20 20" fill="none" xmlns="http://www.w3.org/2000/svg">
<path d="M19.1535 0.0361328H0.966519C0.529142 0.0361328 0.175781 0.389494 0.175781 0.82687V19.0138C0.175781 19.4512 0.529142 19.8046 0.966519 19.8046H19.1535C19.5909 19.8046 19.9442 19.4512 19.9442 19.0138V0.82687C19.9442 0.389494 19.5909 0.0361328 19.1535 0.0361328ZM18.3627 18.2231H13.8135V12.1492H16.3834L16.7689 9.16668H13.8135V7.2615C13.8135 6.39663 14.0532 5.80852 15.2912 5.80852H16.8702V3.13978C16.5959 3.10271 15.6594 3.02117 14.5672 3.02117C12.2889 3.02117 10.7297 4.41237 10.7297 6.96497V9.16421H8.15482V12.1468H10.7321V18.2231H1.75726V1.61761H18.3627V18.2231Z" fill="#17171A"/>
</svg>
