<svg width="22" height="23" viewBox="0 0 22 23" fill="none" xmlns="http://www.w3.org/2000/svg">
<path d="M19.2947 0.629517H2.50412C1.18486 0.629517 0.105469 1.70891 0.105469 3.02817V19.8188C0.105469 21.138 1.18486 22.2174 2.50412 22.2174H19.2947C20.614 22.2174 21.6934 21.138 21.6934 19.8188V3.02817C21.6934 1.70891 20.614 0.629517 19.2947 0.629517ZM19.2947 19.8188H2.50412V14.3258L3.69146 15.5132L8.48877 10.7159L13.2861 15.5132L18.0834 10.7279L19.2947 11.9392V19.8188ZM19.2947 8.53308L18.0834 7.32176L13.2861 12.1311L8.48877 7.33376L3.69146 12.1311L2.50412 10.9317V3.02817H19.2947V8.53308Z" fill="#17171A"/>
</svg>
