<svg width="22" height="23" viewBox="0 0 22 23" fill="none" xmlns="http://www.w3.org/2000/svg">
<path d="M11.0908 6.04199C10.0661 6.04199 9.06439 6.34586 8.21236 6.91516C7.36033 7.48447 6.69626 8.29364 6.30411 9.24037C5.91197 10.1871 5.80937 11.2288 6.00928 12.2339C6.20919 13.2389 6.70264 14.1621 7.42723 14.8867C8.15182 15.6113 9.07501 16.1047 10.08 16.3046C11.0851 16.5045 12.1268 16.4019 13.0735 16.0098C14.0203 15.6176 14.8294 14.9536 15.3987 14.1015C15.968 13.2495 16.2719 12.2478 16.2719 11.2231C16.2719 9.84897 15.7261 8.53114 14.7544 7.5595C13.7828 6.58785 12.4649 6.04199 11.0908 6.04199ZM11.0908 14.6771C10.4077 14.6771 9.73986 14.4746 9.17185 14.095C8.60383 13.7155 8.16111 13.176 7.89968 12.5449C7.63825 11.9137 7.56985 11.2193 7.70313 10.5492C7.8364 9.87921 8.16537 9.26375 8.64843 8.78069C9.13149 8.29763 9.74694 7.96867 10.417 7.83539C11.087 7.70211 11.7815 7.77052 12.4126 8.03195C13.0438 8.29338 13.5832 8.73609 13.9628 9.30411C14.3423 9.87213 14.5449 10.5399 14.5449 11.2231C14.542 12.1383 14.1772 13.0152 13.5301 13.6623C12.8829 14.3095 12.006 14.6743 11.0908 14.6771ZM15.8402 0.429138H6.34148C4.73835 0.429138 3.20088 1.06598 2.0673 2.19956C0.933716 3.33315 0.296875 4.87062 0.296875 6.47375V15.9724C0.296875 17.5756 0.933716 19.113 2.0673 20.2466C3.20088 21.3802 4.73835 22.017 6.34148 22.017H15.8402C17.4433 22.017 18.9808 21.3802 20.1143 20.2466C21.2479 19.113 21.8848 17.5756 21.8848 15.9724V6.47375C21.8848 4.87062 21.2479 3.33315 20.1143 2.19956C18.9808 1.06598 17.4433 0.429138 15.8402 0.429138ZM20.1577 15.9724C20.1577 16.5394 20.0461 17.1009 19.8291 17.6247C19.6121 18.1485 19.2941 18.6245 18.8931 19.0254C18.4922 19.4263 18.0163 19.7444 17.4924 19.9613C16.9686 20.1783 16.4071 20.29 15.8402 20.29H6.34148C5.77449 20.29 5.21305 20.1783 4.68922 19.9613C4.16539 19.7444 3.68942 19.4263 3.2885 19.0254C2.88757 18.6245 2.56954 18.1485 2.35256 17.6247C2.13558 17.1009 2.02391 16.5394 2.02391 15.9724V6.47375C2.02391 5.32865 2.47879 4.23046 3.2885 3.42076C4.0982 2.61106 5.19639 2.15617 6.34148 2.15617H15.8402C16.4071 2.15617 16.9686 2.26785 17.4924 2.48483C18.0163 2.7018 18.4922 3.01983 18.8931 3.42076C19.2941 3.82168 19.6121 4.29765 19.8291 4.82148C20.0461 5.34531 20.1577 5.90675 20.1577 6.47375V15.9724ZM17.9989 5.61023C17.9989 5.86641 17.923 6.11684 17.7807 6.32985C17.6383 6.54285 17.436 6.70887 17.1994 6.80691C16.9627 6.90494 16.7022 6.9306 16.451 6.88062C16.1997 6.83064 15.9689 6.70728 15.7878 6.52613C15.6066 6.34498 15.4833 6.11419 15.4333 5.86293C15.3833 5.61167 15.409 5.35123 15.507 5.11455C15.605 4.87787 15.7711 4.67558 15.9841 4.53325C16.1971 4.39092 16.4475 4.31496 16.7037 4.31496C17.0472 4.31496 17.3767 4.45142 17.6196 4.69433C17.8625 4.93725 17.9989 5.2667 17.9989 5.61023Z" fill="#17171A"/>
</svg>
