<svg width="20" height="24" viewBox="0 0 20 24" fill="none" xmlns="http://www.w3.org/2000/svg">
<path d="M10.7089 21.7368V16.8687H9.08619V21.7368H0.972656V23.3595H18.8224V21.7368H10.7089Z" fill="#17171A"/>
<path d="M4.21956 12.8119C4.66765 12.8119 5.03091 12.4487 5.03091 12.0006C5.03091 11.5525 4.66765 11.1892 4.21956 11.1892C3.77146 11.1892 3.4082 11.5525 3.4082 12.0006C3.4082 12.4487 3.77146 12.8119 4.21956 12.8119Z" fill="#17171A"/>
<path d="M18.0119 15.246H1.78482C1.35458 15.2456 0.942087 15.0745 0.637864 14.7702C0.33364 14.466 0.162539 14.0535 0.162109 13.6233V10.3779C0.162539 9.94763 0.33364 9.53514 0.637864 9.23091C0.942087 8.92669 1.35458 8.75559 1.78482 8.75516H18.0119C18.4421 8.75559 18.8546 8.92669 19.1588 9.23091C19.4631 9.53514 19.6342 9.94763 19.6346 10.3779V13.6233C19.6342 14.0535 19.4631 14.466 19.1588 14.7702C18.8546 15.0745 18.4421 15.2456 18.0119 15.246ZM1.78482 10.3779V13.6233H18.0119V10.3779H1.78482Z" fill="#17171A"/>
<path d="M4.21956 4.69836C4.66765 4.69836 5.03091 4.3351 5.03091 3.88701C5.03091 3.43891 4.66765 3.07565 4.21956 3.07565C3.77146 3.07565 3.4082 3.43891 3.4082 3.88701C3.4082 4.3351 3.77146 4.69836 4.21956 4.69836Z" fill="#17171A"/>
<path d="M18.0119 7.13243H1.78482C1.35458 7.132 0.942087 6.9609 0.637864 6.65667C0.33364 6.35245 0.162539 5.93996 0.162109 5.50972V2.26431C0.162539 1.83407 0.33364 1.42158 0.637864 1.11736C0.942087 0.813132 1.35458 0.642031 1.78482 0.641602H18.0119C18.4421 0.642031 18.8546 0.813132 19.1588 1.11736C19.4631 1.42158 19.6342 1.83407 19.6346 2.26431V5.50972C19.6342 5.93996 19.4631 6.35245 19.1588 6.65667C18.8546 6.9609 18.4421 7.132 18.0119 7.13243ZM1.78482 2.26431V5.50972H18.0119V2.26431H1.78482Z" fill="#17171A"/>
</svg>
