<svg width="23" height="24" viewBox="0 0 23 24" fill="none" xmlns="http://www.w3.org/2000/svg">
<path d="M22.4434 0.653687H8.53116C6.49544 0.653687 4.5431 1.46237 3.10363 2.90185C1.66416 4.34132 0.855469 6.29366 0.855469 8.32938C0.855469 10.3651 1.66416 12.3174 3.10363 13.7569C4.5431 15.1964 6.49544 16.0051 8.53116 16.0051H11.8893V23.6808H18.6055V2.57261H22.4434V0.653687ZM11.8893 14.0862H8.53116C7.00437 14.0862 5.54012 13.4796 4.46051 12.4C3.38091 11.3204 2.77439 9.85617 2.77439 8.32938C2.77439 6.80259 3.38091 5.33833 4.46051 4.25873C5.54012 3.17913 7.00437 2.57261 8.53116 2.57261H11.8893V14.0862ZM16.6866 21.7618H13.8082V2.57261H16.6866V21.7618Z" fill="#17171A"/>
</svg>
