<svg width="22" height="24" viewBox="0 0 22 24" fill="none" xmlns="http://www.w3.org/2000/svg">
<path d="M15.9173 9.69438L11.2914 6.95734C11.1725 6.88695 11.0369 6.84987 10.8988 6.85001C10.7607 6.85014 10.6252 6.88749 10.5065 6.95812L5.88051 9.69515C5.76517 9.76318 5.66958 9.86013 5.60319 9.97641C5.5368 10.0927 5.5019 10.2243 5.50195 10.3582V15.6781C5.50195 15.951 5.64613 16.2031 5.88051 16.3411L10.5065 19.0782C10.625 19.1493 10.7607 19.1869 10.8989 19.1869C11.0372 19.1869 11.1728 19.1493 11.2914 19.0782L15.9173 16.3411C16.0327 16.2731 16.1283 16.1762 16.1947 16.0599C16.2611 15.9436 16.2959 15.812 16.2959 15.6781V10.3582C16.2959 10.2242 16.261 10.0925 16.1946 9.97609C16.1283 9.85969 16.0327 9.76259 15.9173 9.69438ZM14.7539 15.2386L10.8989 17.5192L7.04395 15.2386V10.7977L10.8989 8.51707L14.7539 10.7977V15.2386Z" fill="#17171A"/>
<path d="M3.18945 15.473V8.44618L7.96963 5.62125L7.18553 4.2936L2.02602 7.34289C1.91067 7.4111 1.81509 7.50819 1.74871 7.6246C1.68233 7.74101 1.64743 7.87271 1.64746 8.00671V15.473C1.19779 15.6315 0.808187 15.9253 0.532107 16.314C0.256026 16.7028 0.106997 17.1674 0.105469 17.6442C0.105469 18.9194 1.14323 19.9572 2.41846 19.9572C3.69368 19.9572 4.73145 18.9194 4.73145 17.6442C4.72992 17.1674 4.58089 16.7028 4.30481 16.314C4.02873 15.9253 3.63912 15.6315 3.18945 15.473ZM2.41846 18.4152C2.21994 18.4063 2.0325 18.3212 1.89516 18.1776C1.75783 18.0339 1.68118 17.8429 1.68118 17.6442C1.68118 17.4454 1.75783 17.2544 1.89516 17.1108C2.0325 16.9672 2.21994 16.882 2.41846 16.8732C2.61697 16.882 2.80441 16.9672 2.94175 17.1108C3.07909 17.2544 3.15574 17.4454 3.15574 17.6442C3.15574 17.8429 3.07909 18.0339 2.94175 18.1776C2.80441 18.3212 2.61697 18.4063 2.41846 18.4152ZM19.3804 15.3312C18.1051 15.3312 17.0674 16.3689 17.0674 17.6442C17.0674 17.9163 17.1229 18.1738 17.21 18.4167L10.8994 22.1452L5.96196 19.2278L5.17785 20.5554L10.507 23.7042C10.6257 23.7748 10.7612 23.8122 10.8993 23.8123C11.0374 23.8124 11.173 23.7754 11.2919 23.705L18.2 19.6225C18.5469 19.8299 18.9478 19.9572 19.3804 19.9572C20.6556 19.9572 21.6934 18.9194 21.6934 17.6442C21.6934 16.3689 20.6556 15.3312 19.3804 15.3312ZM19.3804 18.4152C19.1819 18.4063 18.9944 18.3212 18.8571 18.1776C18.7197 18.0339 18.6431 17.8429 18.6431 17.6442C18.6431 17.4454 18.7197 17.2544 18.8571 17.1108C18.9944 16.9672 19.1819 16.882 19.3804 16.8732C19.5789 16.882 19.7663 16.9672 19.9037 17.1108C20.041 17.2544 20.1177 17.4454 20.1177 17.6442C20.1177 17.8429 20.041 18.0339 19.9037 18.1776C19.7663 18.3212 19.5789 18.4063 19.3804 18.4152ZM10.8994 5.30823C11.463 5.30823 11.9726 5.09775 12.3743 4.76236L18.6094 8.44695V13.7892H20.1514V8.00671C20.1514 7.87271 20.1165 7.74101 20.0501 7.6246C19.9837 7.50819 19.8882 7.4111 19.7728 7.34289L13.1677 3.4401C13.1954 3.29593 13.2124 3.1479 13.2124 2.99524C13.2124 1.72001 12.1746 0.682251 10.8994 0.682251C9.62419 0.682251 8.58643 1.72001 8.58643 2.99524C8.58643 4.27047 9.62419 5.30823 10.8994 5.30823ZM10.8994 2.22424C11.0521 2.22409 11.2014 2.26924 11.3285 2.35399C11.4555 2.43873 11.5545 2.55926 11.6131 2.70031C11.6716 2.84136 11.6869 2.99661 11.6572 3.14639C11.6274 3.29616 11.5539 3.43375 11.4459 3.54173C11.3379 3.64971 11.2003 3.72323 11.0506 3.75299C10.9008 3.78274 10.7455 3.76739 10.6045 3.70888C10.4634 3.65037 10.3429 3.55133 10.2582 3.4243C10.1734 3.29727 10.1283 3.14795 10.1284 2.99524C10.1284 2.56965 10.4746 2.22424 10.8994 2.22424Z" fill="#17171A"/>
</svg>
