<svg width="24" height="24" viewBox="0 0 24 24" fill="none" xmlns="http://www.w3.org/2000/svg">
<path d="M22.0041 0.227417H12.0449C11.6048 0.227856 11.1828 0.402876 10.8716 0.714067C10.5605 1.02526 10.3854 1.4472 10.385 1.88729V10.1866H2.08565C1.64556 10.1871 1.22362 10.3621 0.912431 10.6733C0.60124 10.9845 0.426221 11.4064 0.425781 11.8465V23.4656H23.6639V1.88729C23.6635 1.4472 23.4885 1.02526 23.1773 0.714067C22.8661 0.402876 22.4442 0.227856 22.0041 0.227417ZM6.23532 21.8057V15.9962H9.55506V21.8057H6.23532ZM22.0041 21.8057H11.2149V15.1662C11.2149 14.9461 11.1275 14.735 10.9718 14.5794C10.8162 14.4237 10.6051 14.3363 10.385 14.3363H5.40539C5.18527 14.3363 4.97418 14.4237 4.81853 14.5794C4.66289 14.735 4.57545 14.9461 4.57545 15.1662V21.8057H2.08565V11.8465H12.0449V1.88729H22.0041V21.8057Z" fill="#17171A"/>
<path d="M13.7047 5.20702H15.3646V6.86689H13.7047V5.20702ZM18.6843 5.20702H20.3442V6.86689H18.6843V5.20702ZM13.7047 10.1866H15.3646V11.8465H13.7047V10.1866ZM18.6843 10.1866H20.3442V11.8465H18.6843V10.1866ZM13.7047 15.1662H15.3646V16.8261H13.7047V15.1662ZM18.6843 15.1662H20.3442V16.8261H18.6843V15.1662ZM3.33055 8.52676C2.56016 8.52676 1.82132 8.22072 1.27657 7.67597C0.731819 7.13122 0.425781 6.39238 0.425781 5.62199C0.425781 4.8516 0.731819 4.11276 1.27657 3.56801C1.82132 3.02326 2.56016 2.71722 3.33055 2.71722H3.85092C4.03569 2.00504 4.45147 1.37426 5.03314 0.923708C5.61481 0.473151 6.3295 0.228267 7.06526 0.227417H8.72512V1.88729H7.06526C6.62517 1.88772 6.20323 2.06274 5.89204 2.37394C5.58085 2.68513 5.40583 3.10706 5.40539 3.54715V4.37709H3.33055C3.00038 4.37709 2.68374 4.50825 2.45027 4.74171C2.21681 4.97518 2.08565 5.29182 2.08565 5.62199C2.08565 5.95216 2.21681 6.2688 2.45027 6.50227C2.68374 6.73573 3.00038 6.86689 3.33055 6.86689H8.72512V8.52676H3.33055Z" fill="#17171A"/>
</svg>
