<svg width="16" height="12" viewBox="0 0 16 12" fill="none" xmlns="http://www.w3.org/2000/svg">
<path d="M9.40547 11.0707C9.20547 10.8707 9.10947 10.629 9.11747 10.3457C9.12614 10.0623 9.23047 9.82065 9.43047 9.62065L12.2555 6.79565H1.10547C0.822135 6.79565 0.584469 6.69965 0.392469 6.50765C0.201136 6.31632 0.105469 6.07899 0.105469 5.79565C0.105469 5.51232 0.201136 5.27465 0.392469 5.08265C0.584469 4.89132 0.822135 4.79565 1.10547 4.79565H12.2555L9.40547 1.94565C9.20547 1.74565 9.10547 1.50799 9.10547 1.23265C9.10547 0.957986 9.20547 0.720653 9.40547 0.520653C9.60547 0.320653 9.84313 0.220654 10.1185 0.220654C10.3931 0.220654 10.6305 0.320653 10.8305 0.520653L15.4055 5.09565C15.5055 5.19565 15.5765 5.30399 15.6185 5.42065C15.6598 5.53732 15.6805 5.66232 15.6805 5.79565C15.6805 5.92899 15.6598 6.05399 15.6185 6.17065C15.5765 6.28732 15.5055 6.39565 15.4055 6.49565L10.8055 11.0957C10.6221 11.279 10.3931 11.3707 10.1185 11.3707C9.84313 11.3707 9.60547 11.2707 9.40547 11.0707Z" fill="#000FF0"/>
</svg>
