<svg width="14" height="14" viewBox="0 0 14 14" fill="none" xmlns="http://www.w3.org/2000/svg">
<path d="M13 13.0449L9 9.04492M10.3333 5.71159C10.3333 6.32442 10.2126 6.93126 9.97811 7.49744C9.74358 8.06363 9.39984 8.57808 8.9665 9.01142C8.53316 9.44476 8.01871 9.78851 7.45252 10.023C6.88634 10.2575 6.2795 10.3783 5.66667 10.3783C5.05383 10.3783 4.447 10.2575 3.88081 10.023C3.31462 9.78851 2.80018 9.44476 2.36683 9.01142C1.93349 8.57808 1.58975 8.06363 1.35523 7.49744C1.12071 6.93126 1 6.32442 1 5.71159C1 4.47391 1.49167 3.28693 2.36683 2.41176C3.242 1.53659 4.42899 1.04492 5.66667 1.04492C6.90434 1.04492 8.09133 1.53659 8.9665 2.41176C9.84167 3.28693 10.3333 4.47391 10.3333 5.71159Z" stroke="#94A3B8" strokeWidth="1.33333" strokeLinecap="round" sstrokelinejoin="round"/>
</svg>
