<svg width="21" height="20" viewBox="0 0 21 20" fill="none" xmlns="http://www.w3.org/2000/svg">
<path d="M17.4928 9.16662H20.1291V10.9242H17.4928V9.16662ZM0.796143 9.16662H3.43246V10.9242H0.796143V9.16662ZM11.3414 0.378906V3.01522H9.58386V0.378906H11.3414ZM4.24093 2.57584L6.11271 4.45641L4.86486 5.69548L2.99307 3.83248L4.24093 2.57584ZM14.8126 4.44762L16.6755 2.57584L17.9322 3.83248L16.0604 5.69548L14.8126 4.44762ZM10.4626 4.77276C11.861 4.77276 13.2021 5.32827 14.1909 6.31708C15.1798 7.30589 15.7353 8.64701 15.7353 10.0454C15.7353 11.9963 14.6719 13.7011 13.0989 14.615V16.1968C13.0989 16.4299 13.0064 16.6534 12.8416 16.8182C12.6768 16.983 12.4532 17.0756 12.2202 17.0756H8.70509C8.47202 17.0756 8.2485 16.983 8.0837 16.8182C7.9189 16.6534 7.82632 16.4299 7.82632 16.1968V14.615C6.25331 13.7011 5.19 11.9963 5.19 10.0454C5.19 8.64701 5.74551 7.30589 6.73432 6.31708C7.72313 5.32827 9.06424 4.77276 10.4626 4.77276ZM12.2202 17.9543V18.8331C12.2202 19.0662 12.1276 19.2897 11.9628 19.4545C11.798 19.6193 11.5745 19.7119 11.3414 19.7119H9.58386C9.35079 19.7119 9.12728 19.6193 8.96247 19.4545C8.79767 19.2897 8.70509 19.0662 8.70509 18.8331V17.9543H12.2202ZM9.58386 15.318H11.3414V13.4462C12.8617 13.0596 13.9777 11.6799 13.9777 10.0454C13.9777 9.11314 13.6074 8.21906 12.9482 7.55985C12.289 6.90065 11.3949 6.53031 10.4626 6.53031C9.53037 6.53031 8.6363 6.90065 7.97709 7.55985C7.31788 8.21906 6.94754 9.11314 6.94754 10.0454C6.94754 11.6799 8.06358 13.0596 9.58386 13.4462V15.318Z" fill="#17171A"/>
</svg>
