<svg width="55" height="55" viewBox="0 0 55 55" fill="none" xmlns="http://www.w3.org/2000/svg">
<path d="M39.1085 36.7072C39.1085 36.3459 38.973 36.0297 38.702 35.7587C38.4311 35.4877 38.1149 35.3522 37.7536 35.3522C37.3922 35.3522 37.0761 35.4877 36.8051 35.7587C36.5341 36.0297 36.3986 36.3459 36.3986 36.7072V44.837C36.3986 45.1983 36.5341 45.5145 36.8051 45.7855C37.0761 46.0565 37.3922 46.192 37.7536 46.192C38.1149 46.192 38.4311 46.0565 38.702 45.7855C38.973 45.5145 39.1085 45.1983 39.1085 44.837V36.7072ZM43.1734 36.7072V44.837C43.1734 45.1983 43.3089 45.5145 43.5799 45.7855C43.8509 46.0565 44.1671 46.192 44.5284 46.192C44.8897 46.192 45.2059 46.0565 45.4769 45.7855C45.7479 45.5145 45.8834 45.1983 45.8834 44.837V36.7072C45.8834 36.3459 45.7479 36.0297 45.4769 35.7587C45.2059 35.4877 44.8897 35.3522 44.5284 35.3522C44.1671 35.3522 43.8509 35.4877 43.5799 35.7587C43.3089 36.0297 43.1734 36.3459 43.1734 36.7072ZM38.4311 16.3827C39.1989 16.3827 39.842 16.1225 40.3605 15.6022C40.8808 15.0837 41.141 14.4405 41.141 13.6727C41.141 12.9049 40.8808 12.2609 40.3605 11.7405C39.842 11.222 39.1989 10.9628 38.4311 10.9628H11.3317C10.5639 10.9628 9.91981 11.222 9.39951 11.7405C8.881 12.2609 8.62175 12.9049 8.62175 13.6727C8.62175 14.4405 8.881 15.0837 9.39951 15.6022C9.91981 16.1225 10.5639 16.3827 11.3317 16.3827H38.4311ZM41.141 54.3218C37.3922 54.3218 34.1972 53.0011 31.5559 50.3599C28.9129 47.7168 27.5913 44.5208 27.5913 40.7721C27.5913 37.0233 28.9129 33.8274 31.5559 31.1843C34.1972 28.5431 37.3922 27.2224 41.141 27.2224C44.8897 27.2224 48.0857 28.5431 50.7287 31.1843C53.37 33.8274 54.6907 37.0233 54.6907 40.7721C54.6907 44.5208 53.37 47.7168 50.7287 50.3599C48.0857 53.0011 44.8897 54.3218 41.141 54.3218ZM5.91182 0.123047H43.8509C45.3414 0.123047 46.6178 0.653291 47.6801 1.71378C48.7406 2.77607 49.2708 4.05245 49.2708 5.54292V23.6317C48.0062 22.9994 46.6855 22.536 45.3089 22.2415C43.9304 21.9489 42.5411 21.8025 41.141 21.8025H11.3317C10.5639 21.8025 9.91981 22.0618 9.39951 22.5803C8.881 23.1006 8.62175 23.7447 8.62175 24.5125C8.62175 25.2803 8.881 25.9235 9.39951 26.442C9.91981 26.9623 10.5639 27.2224 11.3317 27.2224H27.8623C27.0945 27.9902 26.3827 28.8258 25.7269 29.7291C25.0729 30.6324 24.4975 31.6035 24.0006 32.6423H11.3317C10.5639 32.6423 9.91981 32.9015 9.39951 33.42C8.881 33.9403 8.62175 34.5844 8.62175 35.3522C8.62175 36.12 8.881 36.7632 9.39951 37.2817C9.91981 37.802 10.5639 38.0622 11.3317 38.0622H22.3747C22.2843 38.5138 22.2274 38.9546 22.204 39.3846C22.1823 39.8128 22.1714 40.2753 22.1714 40.7721C22.1714 42.6691 22.4316 44.4874 22.9519 46.2272C23.4704 47.9652 24.2491 49.6246 25.2879 51.2054C25.062 51.2505 24.8245 51.2162 24.5751 51.1024C24.3276 50.9904 24.1136 50.844 23.9329 50.6634L21.7649 48.4954C21.494 48.2244 21.1778 48.0889 20.8165 48.0889C20.4551 48.0889 20.139 48.2244 19.868 48.4954L17.7 50.6634C17.429 50.9344 17.1129 51.0699 16.7516 51.0699C16.3902 51.0699 16.0741 50.9344 15.8031 50.6634L13.6351 48.4954C13.3641 48.2244 13.048 48.0889 12.6867 48.0889C12.3253 48.0889 12.0092 48.2244 11.7382 48.4954L9.57023 50.6634C9.29924 50.9344 8.98308 51.0699 8.62175 51.0699C8.26043 51.0699 7.94427 50.9344 7.67328 50.6634L5.50533 48.4954C5.23433 48.2244 4.91817 48.0889 4.55685 48.0889C4.19552 48.0889 3.87936 48.2244 3.60837 48.4954L1.44042 50.6634L0.491943 51.2731V5.54292C0.491943 4.05245 1.02219 2.77607 2.08268 1.71378C3.14497 0.653291 4.42135 0.123047 5.91182 0.123047Z" fill="#17171A"/>
</svg>
