<svg width="49" height="21" viewBox="0 0 49 21" fill="none" xmlns="http://www.w3.org/2000/svg">
<rect y="0.0532227" width="48.8353" height="19.9889" rx="9.99444" fill="url(#paint0_linear_1197_6610)"/>
<path d="M13.9922 9.56969H11.8361L11.8244 8.66401H13.7819C14.1052 8.66401 14.3876 8.60947 14.6291 8.5004C14.8706 8.39133 15.0576 8.23551 15.19 8.03295C15.3264 7.8265 15.3946 7.58109 15.3946 7.29672C15.3946 6.98509 15.3342 6.73189 15.2134 6.53712C15.0966 6.33846 14.9154 6.19433 14.67 6.10473C14.4285 6.01125 14.1208 5.9645 13.7468 5.9645H12.0874V13.5488H10.9596V5.04129H13.7468C14.1831 5.04129 14.5726 5.08609 14.9154 5.17568C15.2582 5.26138 15.5484 5.39772 15.786 5.5847C16.0276 5.76778 16.2106 6.00151 16.3353 6.28587C16.4599 6.57023 16.5223 6.91108 16.5223 7.30841C16.5223 7.659 16.4327 7.97647 16.2535 8.26083C16.0743 8.5413 15.825 8.77113 15.5056 8.95032C15.19 9.12951 14.82 9.24442 14.3954 9.29506L13.9922 9.56969ZM13.9396 13.5488H11.392L12.0289 12.6315H13.9396C14.298 12.6315 14.6018 12.5691 14.8511 12.4445C15.1043 12.3198 15.2972 12.1445 15.4296 11.9186C15.5621 11.6888 15.6283 11.418 15.6283 11.1064C15.6283 10.7909 15.5718 10.5182 15.4588 10.2884C15.3459 10.0586 15.1686 9.88132 14.9271 9.75666C14.6856 9.63201 14.374 9.56969 13.9922 9.56969H12.3854L12.397 8.66401H14.5941L14.8336 8.99122C15.2426 9.02628 15.5893 9.14314 15.8737 9.34181C16.1581 9.53657 16.3742 9.78588 16.5223 10.0897C16.6742 10.3936 16.7501 10.7286 16.7501 11.0947C16.7501 11.6245 16.6333 12.0725 16.3996 12.4386C16.1697 12.8009 15.8445 13.0775 15.4238 13.2684C15.0031 13.4553 14.5084 13.5488 13.9396 13.5488ZM23.8203 12.6315V13.5488H19.3153V12.6315H23.8203ZM19.5431 5.04129V13.5488H18.4154V5.04129H19.5431ZM23.2243 8.69907V9.61643H19.3153V8.69907H23.2243ZM23.7619 5.04129V5.9645H19.3153V5.04129H23.7619ZM28.4772 5.04129V13.5488H27.367V5.04129H28.4772ZM31.2118 5.04129V5.9645H24.6383V5.04129H31.2118ZM35.1559 5.79505L32.3395 13.5488H31.1884L34.4313 5.04129H35.1734L35.1559 5.79505ZM37.5165 13.5488L34.6943 5.79505L34.6767 5.04129H35.4188L38.6734 13.5488H37.5165ZM37.3704 10.3994V11.3226H32.5908V10.3994H37.3704Z" fill="white"/>
<defs>
<linearGradient id="paint0_linear_1197_6610" x1="0" y1="0.0532227" x2="14.0153" y2="34.2944" gradientUnits="userSpaceOnUse">
<stop stop-color="#4300A3"/>
<stop offset="0.0909091" stop-color="#4D00AA"/>
<stop offset="0.181818" stop-color="#5700B1"/>
<stop offset="0.272727" stop-color="#6000B7"/>
<stop offset="0.363636" stop-color="#6A00BE"/>
<stop offset="0.454545" stop-color="#7200C5"/>
<stop offset="0.545455" stop-color="#7B00CB"/>
<stop offset="0.636364" stop-color="#8300D2"/>
<stop offset="0.727273" stop-color="#8C00DA"/>
<stop offset="0.818182" stop-color="#9500E2"/>
<stop offset="0.909091" stop-color="#9E00E9"/>
<stop offset="1" stop-color="#A700F1"/>
</linearGradient>
</defs>
</svg>
