<svg width="18" height="14" viewBox="0 0 18 14" fill="none" xmlns="http://www.w3.org/2000/svg">
<path d="M1.5 5.38639H16.5M4.83333 9.55306H5.66667M9 9.55306H9.83333M4 12.8864H14C14.663 12.8864 15.2989 12.623 15.7678 12.1542C16.2366 11.6853 16.5 11.0494 16.5 10.3864V3.71973C16.5 3.05669 16.2366 2.4208 15.7678 1.95196C15.2989 1.48312 14.663 1.21973 14 1.21973H4C3.33696 1.21973 2.70107 1.48312 2.23223 1.95196C1.76339 2.4208 1.5 3.05669 1.5 3.71973V10.3864C1.5 11.0494 1.76339 11.6853 2.23223 12.1542C2.70107 12.623 3.33696 12.8864 4 12.8864Z" stroke="#94A3B8" strokeWidth="1.66667" strokeLinecap="round" sstrokelinejoin="round"/>
</svg>
