<svg width="19" height="21" viewBox="0 0 19 21" fill="none" xmlns="http://www.w3.org/2000/svg">
<path d="M11.7145 2.1626C11.7351 2.13668 11.7608 2.11522 11.7899 2.09952C11.8191 2.08383 11.8511 2.07423 11.8841 2.07131C11.9171 2.06838 11.9503 2.0722 11.9818 2.08252C12.0132 2.09284 12.0423 2.10945 12.0671 2.13134L12.9667 2.92446L10.1351 6.46517H12.0114L14.0685 3.89437L15.682 5.31749C15.7298 5.35965 15.7591 5.41879 15.7639 5.48228C15.7686 5.54578 15.7484 5.60862 15.7074 5.6574L15.0335 6.46517H16.9323C17.1675 6.12084 17.2687 5.70242 17.2169 5.28866C17.1651 4.8749 16.9638 4.49435 16.651 4.21865L13.037 1.03152C12.8627 0.877983 12.6589 0.761592 12.438 0.68946C12.2172 0.617329 11.984 0.59097 11.7526 0.611995C11.5212 0.633019 11.2966 0.700986 11.0924 0.811743C10.8882 0.9225 10.7087 1.07372 10.5649 1.25618L6.4596 6.46517H8.32519L11.7145 2.1626ZM13.5645 13.3024C13.3702 13.3024 13.1838 13.3796 13.0465 13.517C12.9091 13.6543 12.8319 13.8407 12.8319 14.035C12.8319 14.2292 12.9091 14.4156 13.0465 14.553C13.1838 14.6903 13.3702 14.7675 13.5645 14.7675H15.518C15.7122 14.7675 15.8986 14.6903 16.036 14.553C16.1733 14.4156 16.2505 14.2292 16.2505 14.035C16.2505 13.8407 16.1733 13.6543 16.036 13.517C15.8986 13.3796 15.7122 13.3024 15.518 13.3024H13.5645ZM2.08768 6.70936C2.08768 6.51507 2.16486 6.32874 2.30224 6.19136C2.43962 6.05398 2.62595 5.9768 2.82024 5.9768H5.87551L7.03979 4.51167H2.82024C2.23738 4.51167 1.67839 4.74322 1.26624 5.15536C0.854099 5.56751 0.622559 6.1265 0.622559 6.70936V16.9652C0.622559 17.8071 0.957006 18.6145 1.55233 19.2099C2.14765 19.8052 2.95508 20.1396 3.79699 20.1396H15.518C16.3599 20.1396 17.1673 19.8052 17.7626 19.2099C18.3579 18.6145 18.6924 17.8071 18.6924 16.9652V10.6163C18.6924 9.77444 18.3579 8.96701 17.7626 8.37169C17.1673 7.77637 16.3599 7.44192 15.518 7.44192H2.82024C2.62595 7.44192 2.43962 7.36474 2.30224 7.22736C2.16486 7.08997 2.08768 6.90364 2.08768 6.70936ZM2.08768 16.9652V8.78201C2.31722 8.86308 2.56336 8.90704 2.82024 8.90704H15.518C16.4615 8.90704 17.2273 9.67281 17.2273 10.6163V16.9652C17.2273 17.4185 17.0472 17.8533 16.7266 18.1739C16.4061 18.4944 15.9713 18.6745 15.518 18.6745H3.79699C3.34365 18.6745 2.90888 18.4944 2.58832 18.1739C2.26777 17.8533 2.08768 17.4185 2.08768 16.9652Z" fill="#4B5563"/>
</svg>
