<svg width="18" height="18" viewBox="0 0 18 18" fill="none" xmlns="http://www.w3.org/2000/svg">
<path d="M9 5.71989V9.05322L11.5 11.5532M16.5 9.05322C16.5 10.0381 16.306 11.0134 15.9291 11.9233C15.5522 12.8333 14.9997 13.6601 14.3033 14.3565C13.6069 15.053 12.7801 15.6054 11.8701 15.9823C10.9602 16.3592 9.98491 16.5532 9 16.5532C8.01509 16.5532 7.03982 16.3592 6.12987 15.9823C5.21993 15.6054 4.39314 15.053 3.6967 14.3565C3.00026 13.6601 2.44781 12.8333 2.0709 11.9233C1.69399 11.0134 1.5 10.0381 1.5 9.05322C1.5 7.0641 2.29018 5.15644 3.6967 3.74992C5.10322 2.3434 7.01088 1.55322 9 1.55322C10.9891 1.55322 12.8968 2.3434 14.3033 3.74992C15.7098 5.15644 16.5 7.0641 16.5 9.05322Z" stroke="#94A3B8" strokeWidth="1.66667" strokeLinecap="round" sstrokelinejoin="round"/>
</svg>
