<svg width="13" height="14" viewBox="0 0 13 14" fill="none" xmlns="http://www.w3.org/2000/svg">
<path d="M8.9039 9.69357C8.77148 9.53708 8.70527 9.3594 8.70527 9.16053C8.70527 8.96215 8.77148 8.79675 8.9039 8.66434L10.2401 7.32814H5.05782C4.85318 7.32814 4.68176 7.2588 4.54357 7.12013C4.40489 6.98193 4.33556 6.81052 4.33556 6.60587C4.33556 6.40123 4.40489 6.22957 4.54357 6.0909C4.68176 5.9527 4.85318 5.88361 5.05782 5.88361H10.2401L8.9039 4.54741C8.75944 4.40296 8.68722 4.23154 8.68722 4.03316C8.68722 3.83429 8.75944 3.66264 8.9039 3.51818C9.03631 3.37373 9.20195 3.3015 9.40082 3.3015C9.5992 3.3015 9.7646 3.36771 9.89702 3.50012L12.4972 6.10029C12.5694 6.17251 12.6207 6.25076 12.651 6.33502C12.6809 6.41929 12.6958 6.50957 12.6958 6.60587C12.6958 6.70218 12.6809 6.79246 12.651 6.87672C12.6207 6.96099 12.5694 7.03923 12.4972 7.11146L9.89702 9.71162C9.74052 9.86811 9.56911 9.93721 9.38276 9.91891C9.19593 9.9011 9.03631 9.82598 8.9039 9.69357ZM1.44649 13.1063C1.04924 13.1063 0.709053 12.965 0.425924 12.6823C0.143277 12.3992 0.00195312 12.059 0.00195312 11.6617V1.55C0.00195312 1.15276 0.143277 0.812568 0.425924 0.52944C0.709053 0.246792 1.04924 0.105469 1.44649 0.105469H5.78009C5.98473 0.105469 6.15639 0.174566 6.29507 0.312759C6.43326 0.451435 6.50236 0.623094 6.50236 0.827736C6.50236 1.03238 6.43326 1.2038 6.29507 1.34199C6.15639 1.48067 5.98473 1.55 5.78009 1.55H1.44649V11.6617H5.78009C5.98473 11.6617 6.15639 11.7311 6.29507 11.8698C6.43326 12.008 6.50236 12.1794 6.50236 12.384C6.50236 12.5887 6.43326 12.7601 6.29507 12.8983C6.15639 13.0369 5.98473 13.1063 5.78009 13.1063H1.44649Z" fill="#000FF0"/>
</svg>
