<svg width="15" height="15" viewBox="0 0 15 15" fill="none" xmlns="http://www.w3.org/2000/svg">
<path d="M2.38086 0.410278C1.85043 0.410278 1.34172 0.620992 0.966646 0.996065C0.591573 1.37114 0.380859 1.87985 0.380859 2.41028V4.41028C0.380859 4.94071 0.591573 5.44942 0.966646 5.82449C1.34172 6.19956 1.85043 6.41028 2.38086 6.41028H4.38086C4.91129 6.41028 5.42 6.19956 5.79507 5.82449C6.17015 5.44942 6.38086 4.94071 6.38086 4.41028V2.41028C6.38086 1.87985 6.17015 1.37114 5.79507 0.996065C5.42 0.620992 4.91129 0.410278 4.38086 0.410278H2.38086ZM2.38086 8.41028C1.85043 8.41028 1.34172 8.62099 0.966646 8.99607C0.591573 9.37114 0.380859 9.87985 0.380859 10.4103V12.4103C0.380859 12.9407 0.591573 13.4494 0.966646 13.8245C1.34172 14.1996 1.85043 14.4103 2.38086 14.4103H4.38086C4.91129 14.4103 5.42 14.1996 5.79507 13.8245C6.17015 13.4494 6.38086 12.9407 6.38086 12.4103V10.4103C6.38086 9.87985 6.17015 9.37114 5.79507 8.99607C5.42 8.62099 4.91129 8.41028 4.38086 8.41028H2.38086ZM8.38086 2.41028C8.38086 1.87985 8.59157 1.37114 8.96665 0.996065C9.34172 0.620992 9.85043 0.410278 10.3809 0.410278H12.3809C12.9113 0.410278 13.42 0.620992 13.7951 0.996065C14.1701 1.37114 14.3809 1.87985 14.3809 2.41028V4.41028C14.3809 4.94071 14.1701 5.44942 13.7951 5.82449C13.42 6.19956 12.9113 6.41028 12.3809 6.41028H10.3809C9.85043 6.41028 9.34172 6.19956 8.96665 5.82449C8.59157 5.44942 8.38086 4.94071 8.38086 4.41028V2.41028ZM8.38086 10.4103C8.38086 9.87985 8.59157 9.37114 8.96665 8.99607C9.34172 8.62099 9.85043 8.41028 10.3809 8.41028H12.3809C12.9113 8.41028 13.42 8.62099 13.7951 8.99607C14.1701 9.37114 14.3809 9.87985 14.3809 10.4103V12.4103C14.3809 12.9407 14.1701 13.4494 13.7951 13.8245C13.42 14.1996 12.9113 14.4103 12.3809 14.4103H10.3809C9.85043 14.4103 9.34172 14.1996 8.96665 13.8245C8.59157 13.4494 8.38086 12.9407 8.38086 12.4103V10.4103Z" fill="#500AD2"/>
</svg>
