<svg width="15" height="20" viewBox="0 0 15 20" fill="none" xmlns="http://www.w3.org/2000/svg">
<path d="M6.77054 6.38941C6.92183 6.54051 7.12691 6.62538 7.34073 6.62538C7.55455 6.62538 7.75963 6.54051 7.91092 6.38941L8.98674 5.31358C9.09944 5.20074 9.17618 5.05704 9.20725 4.90061C9.23833 4.74419 9.22235 4.58206 9.16134 4.43471C9.10033 4.28737 8.99702 4.1614 8.86446 4.07273C8.7319 3.98406 8.57604 3.93666 8.41656 3.93652H6.2649C6.10542 3.93666 5.94956 3.98406 5.817 4.07273C5.68444 4.1614 5.58113 4.28737 5.52012 4.43471C5.45911 4.58206 5.44313 4.74419 5.47421 4.90061C5.50528 5.05704 5.58201 5.20074 5.69471 5.31358L6.77054 6.38941ZM6.77054 13.8557C6.92183 13.7046 7.12691 13.6197 7.34073 13.6197C7.55455 13.6197 7.75963 13.7046 7.91092 13.8557L8.98674 14.9315C9.09944 15.0443 9.17618 15.188 9.20725 15.3445C9.23833 15.5009 9.22235 15.663 9.16134 15.8103C9.10033 15.9577 8.99702 16.0837 8.86446 16.1723C8.7319 16.261 8.57604 16.3084 8.41656 16.3085H6.2649C6.10542 16.3084 5.94956 16.261 5.817 16.1723C5.68444 16.0837 5.58113 15.9577 5.52012 15.8103C5.45911 15.663 5.44313 15.5009 5.47421 15.3445C5.50528 15.188 5.58201 15.0443 5.69471 14.9315L6.77054 13.8557Z" fill="white"/>
<path fill-rule="evenodd" clip-rule="evenodd" d="M8.57642 10.1224L8.7776 9.94917C10.9029 8.11816 12.6699 5.90866 13.9889 3.43288C14.1083 3.20888 14.1703 2.95879 14.1694 2.70498C14.1685 2.45116 14.1047 2.20153 13.9837 1.97838C13.8628 1.75524 13.6884 1.56553 13.4762 1.42623C13.2641 1.28693 13.0207 1.20237 12.7678 1.1801L11.5048 1.07037C8.73376 0.828107 5.94684 0.828107 3.17577 1.07037L1.91275 1.1801C1.65991 1.20237 1.41653 1.28693 1.20435 1.42623C0.99218 1.56553 0.817825 1.75524 0.696874 1.97838C0.575924 2.20153 0.512146 2.45116 0.51124 2.70498C0.510335 2.95879 0.57233 3.20888 0.691686 3.43288C2.01074 5.90865 3.77775 8.11815 5.90299 9.94917L6.10417 10.1224L5.90299 10.2956C3.77754 12.1272 2.01051 14.3375 0.691686 16.814C0.572568 17.038 0.510764 17.288 0.51179 17.5416C0.512817 17.7953 0.576642 18.0448 0.697568 18.2678C0.818494 18.4908 0.992758 18.6803 1.2048 18.8196C1.41684 18.9588 1.66006 19.0434 1.91275 19.0657L3.17577 19.1755C5.9471 19.4186 8.7335 19.4186 11.5048 19.1755L12.7678 19.0657C13.0205 19.0434 13.2638 18.9588 13.4758 18.8196C13.6878 18.6803 13.8621 18.4908 13.983 18.2678C14.104 18.0448 14.1678 17.7953 14.1688 17.5416C14.1698 17.288 14.108 17.038 13.9889 16.814C12.67 14.3379 10.903 12.128 8.7776 10.2967L8.57642 10.1245V10.1224ZM7.3446 9.05301L7.34675 9.05085L7.72437 8.72595C9.66814 7.0512 11.2895 5.03534 12.5086 2.7777L11.3639 2.67765C8.6866 2.4436 5.994 2.4436 3.3167 2.67765L2.17095 2.7777C3.39025 5.0358 5.01199 7.05203 6.95623 8.72703L7.33277 9.05193C7.33378 9.05246 7.33487 9.05282 7.336 9.05301H7.3403C7.34172 9.0533 7.34318 9.0533 7.3446 9.05301ZM7.34675 11.1939L7.3446 11.1918H7.3403C7.33888 11.1915 7.33742 11.1915 7.336 11.1918L7.33277 11.1939L6.95623 11.5188C5.012 13.1938 3.39027 15.21 2.17095 17.4681L3.31563 17.5671C5.99444 17.8016 8.68616 17.8016 11.3639 17.5671L12.5086 17.4671C11.2896 15.209 9.66822 13.1928 7.72437 11.5177L7.34783 11.1939H7.34675Z" fill="white"/>
</svg>
