<svg width="10" height="10" viewBox="0 0 10 10" fill="none" xmlns="http://www.w3.org/2000/svg">
<path d="M4.3471 9.1476L0.412956 5.21345C0.353347 5.15384 0.311025 5.08927 0.28599 5.01973C0.260954 4.95018 0.248635 4.87567 0.249033 4.7962C0.249033 4.71672 0.261551 4.64221 0.286586 4.57266C0.311622 4.50312 0.353745 4.43855 0.412956 4.37894L4.3471 0.444789C4.45639 0.335507 4.59309 0.278482 4.75721 0.273714C4.92133 0.268945 5.0628 0.32597 5.18162 0.444789C5.30084 0.554071 5.36303 0.690773 5.36819 0.854894C5.37336 1.01902 5.31614 1.16049 5.19652 1.27931L2.27572 4.20011H8.93694C9.10583 4.20011 9.2475 4.25734 9.36195 4.37178C9.4764 4.48623 9.53342 4.6277 9.53303 4.7962C9.53303 4.96509 9.476 5.10675 9.36195 5.2212C9.2479 5.33565 9.10623 5.39268 8.93694 5.39228H2.27572L5.19652 8.31308C5.3058 8.42237 5.36303 8.56145 5.36819 8.73034C5.37336 8.89923 5.31614 9.03832 5.19652 9.1476C5.08724 9.26682 4.94815 9.32643 4.77926 9.32643C4.61037 9.32643 4.46632 9.26682 4.3471 9.1476Z" fill="#45565E"/>
</svg>
