<svg width="22" height="23" viewBox="0 0 22 23" fill="none" xmlns="http://www.w3.org/2000/svg">
<path d="M8.47445 21.7559H3.51611C2.87445 21.7559 2.32495 21.5272 1.86761 21.0699C1.41028 20.6125 1.182 20.0634 1.18278 19.4225V4.25586H0.0161133V1.92253H5.84945V0.755859H12.8494V1.92253H18.6828V4.25586H17.5161V9.27253C17.1856 9.1753 16.8013 9.09247 16.3634 9.02403C15.9256 8.95558 15.532 8.92175 15.1828 8.92253V4.25586H3.51611V19.4225H7.36611C7.48278 19.8309 7.63834 20.2345 7.83278 20.6335C8.02722 21.0325 8.24111 21.4066 8.47445 21.7559ZM5.84945 17.0892H7.01611C7.01611 15.8642 7.21056 14.8577 7.59945 14.0699L8.18278 12.8892V6.58919H5.84945V17.0892ZM10.5161 10.3809C10.8467 10.167 11.2212 9.95308 11.6396 9.73919C12.0581 9.5253 12.4613 9.36975 12.8494 9.27253V6.58919H10.5161V10.3809ZM15.1828 22.9225C13.5689 22.9225 12.193 22.3536 11.0551 21.2157C9.91722 20.0778 9.34867 18.7023 9.34945 17.0892C9.34945 15.4753 9.91839 14.0994 11.0563 12.9615C12.1942 11.8236 13.5697 11.2551 15.1828 11.2559C16.7967 11.2559 18.1726 11.8248 19.3104 12.9627C20.4483 14.1006 21.0169 15.4761 21.0161 17.0892C21.0161 18.7031 20.4472 20.079 19.3093 21.2169C18.1714 22.3547 16.7959 22.9233 15.1828 22.9225ZM17.1078 19.8309L17.9244 19.0142L15.7661 16.8559V13.5892H14.5994V17.3225L17.1078 19.8309Z" fill="#17171A"/>
</svg>
