<svg width="13" height="13" viewBox="0 0 13 13" fill="none" xmlns="http://www.w3.org/2000/svg">
<path d="M6.37992 0.125001C3.00961 0.125001 0.267822 2.86679 0.267822 6.2371C0.267822 9.60741 3.00961 12.3492 6.37992 12.3492C8.44275 12.3492 10.2713 11.3244 11.3781 9.75461L10.5504 9.16581C10.0806 9.83542 9.45617 10.3818 8.73015 10.7587C8.00412 11.1355 7.19792 11.3317 6.37992 11.3305C3.56071 11.3305 1.2865 9.0563 1.2865 6.2371C1.2865 3.41789 3.56071 1.14368 6.37992 1.14368C7.19788 1.14273 8.00401 1.33898 8.73 1.71581C9.45598 2.09263 10.0804 2.63892 10.5504 3.30838L11.3781 2.71959C10.8144 1.91766 10.066 1.26322 9.19601 0.811616C8.32604 0.360008 7.36012 0.1245 6.37992 0.125001ZM10.1205 3.83352L9.38809 4.56595L10.5504 5.72776H4.34255V6.74644H10.5504L9.38809 7.90825L10.1205 8.64068L12.1579 6.60331L12.5073 6.2371L12.1574 5.87088L10.1205 3.83352Z" fill="#45565E"/>
</svg>
