<svg width="288" height="288" viewBox="0 0 288 288" fill="none" xmlns="http://www.w3.org/2000/svg">
<mask id="mask0_1126_524" style="mask-type:luminance" maskUnits="userSpaceOnUse" x="0" y="0" width="288" height="288">
<path d="M287.021 0.493896H0.203613V287.312H287.021V0.493896Z" fill="white"/>
</mask>
<g mask="url(#mask0_1126_524)">
<path d="M136.165 229.987C207.053 237.161 243.587 219.723 245.768 177.673C249.039 114.597 193.944 121.411 177.899 104.787C161.853 88.1634 179.828 111.788 148.927 77.3394C128.325 54.3734 100.874 54.2555 66.5725 76.9865C38.9049 99.5048 35.9125 129.036 57.5945 165.58C79.2765 202.123 105.466 223.592 136.165 229.987Z" fill="#EAF0F6"/>
<path d="M49.4035 190.136L47.1141 192.426L43.367 188.677L39.6121 192.432L37.3228 190.142L41.0757 186.387L37.3285 182.64L39.6179 180.349L43.3651 184.098L47.1199 180.345L49.4093 182.634L45.6564 186.389L49.4035 190.136Z" fill="#CAD8E9"/>
<path d="M231.101 110.39C227.672 110.39 224.895 107.608 224.895 104.18C224.895 100.751 227.672 97.9697 231.101 97.9697C234.531 97.9697 237.308 100.751 237.308 104.18C237.308 107.608 234.531 110.39 231.101 110.39ZM231.101 106.851C232.569 106.851 233.761 105.656 233.761 104.18C233.761 102.703 232.569 101.509 231.101 101.509C229.633 101.509 228.44 102.703 228.44 104.18C228.44 105.656 229.633 106.851 231.101 106.851Z" fill="#8D96B2"/>
<mask id="mask1_1126_524" style="mask-type:luminance" maskUnits="userSpaceOnUse" x="102" y="72" width="112" height="33">
<path d="M213.914 72.2417H102.352L102.288 104.142H213.849L213.914 72.2417Z" fill="white"/>
</mask>
<g mask="url(#mask1_1126_524)">
<path d="M103.949 73.86C118.245 73.86 120.032 82.3099 120.032 90.7447V99.947C120.032 101.405 121.141 102.59 122.505 102.59L206.741 101.857C208.107 101.857 209.215 100.673 209.215 99.2152V89.2945C209.215 80.245 202.351 72.9075 193.884 72.9075C193.311 72.9075 103.35 73.86 103.949 73.86Z" fill="#8D96B2"/>
<path d="M103.946 75.4064C103.946 76.786 105.067 77.9056 106.448 77.9056C193.902 77.9056 193.918 77.9047 193.934 77.9056C199.665 77.9154 204.309 82.5992 204.318 88.3811V100.236H206.791C208.155 100.236 209.263 99.1194 209.263 97.7425V88.3811C209.3 79.8311 202.459 72.8706 193.984 72.834H193.885H192.962C192.735 72.8474 192.514 72.884 192.29 72.9081H106.444C105.064 72.9081 103.946 74.0268 103.946 75.4064Z" fill="#8D96B2"/>
</g>
<mask id="mask2_1126_524" style="mask-type:luminance" maskUnits="userSpaceOnUse" x="68" y="70" width="138" height="151">
<path d="M205.356 70.6348H68.1104V220.075H205.356V70.6348Z" fill="white"/>
</mask>
<g mask="url(#mask2_1126_524)">
<path d="M193.885 77.5977V72.9067H104.813C93.1423 72.9246 83.6854 82.4611 83.6675 94.2286V216.664C83.6675 218.04 84.7754 219.157 86.1398 219.157H162.404C174.06 219.12 183.493 209.588 183.502 197.835V88.3627V88.2457C183.574 82.512 188.2 77.6138 193.885 77.6057C193.908 77.6057 193.93 77.5986 193.952 77.5977H193.885Z" fill="white"/>
<path d="M104.765 72.9069C93.0934 72.9257 83.6355 82.4622 83.6177 94.2298V165.909L136.873 72.8408L104.765 72.9069Z" fill="#F0F0F0"/>
<path d="M83.6666 123.14V95.8094C83.6853 84.0409 93.1423 74.5053 104.814 74.4866H193.885M77.3369 215.767C82.656 215.767 83.6183 210.116 83.6183 206.544C83.6183 177.338 83.6666 156.693 83.6666 149.286M84.1321 131.49V134.774" stroke="#8D96B2" strokeWidth="7.2" stroke-miterlimit="10" strokeLinecap="round"/>
<path d="M193.885 72.8328H192.962C184.878 73.3251 178.567 80.0756 178.556 88.2468V88.48V197.774C178.541 205.221 173.553 211.722 166.41 213.604C165.629 213.807 164.829 213.907 164.03 213.915V213.918H163.969H163.905H71.4463C75.1579 217.194 80.0133 219.186 85.3324 219.19H85.3654H112.023H162.405C162.948 219.19 163.788 219.19 164.333 219.107C165.294 219.019 166.246 218.858 167.184 218.626C176.758 216.377 183.539 207.774 183.552 197.857V88.3299V88.2137C183.622 82.8392 187.706 78.3904 193.011 77.9043C193.304 77.8883 193.865 77.8901 194.156 77.9043L193.885 72.8328Z" fill="#8D96B2"/>
</g>
<mask id="mask3_1126_524" style="mask-type:luminance" maskUnits="userSpaceOnUse" x="62" y="191" width="103" height="29">
<path d="M164.107 191.522H62.75V219.628H164.107V191.522Z" fill="white"/>
</mask>
<g mask="url(#mask3_1126_524)">
<path d="M193.884 72.8328H192.961C184.877 73.326 178.568 80.0756 178.557 88.2468V88.48V197.774C178.542 205.221 173.553 211.723 166.41 213.604C164.789 214.027 163.086 214.027 161.465 213.604C154.3 211.696 149.313 205.15 149.333 197.674V194.349C149.342 192.972 148.243 191.846 146.878 191.838H131.207H118.607H99.1832H78.846H66.6906C65.3262 191.838 64.2183 192.956 64.2183 194.333V197.858C64.2075 209.63 73.6627 219.18 85.3329 219.19H85.3642H112.022H162.403C162.947 219.19 163.788 219.19 164.332 219.107C165.293 219.019 166.247 218.859 167.184 218.626C176.759 216.378 183.539 207.775 183.551 197.858V88.3308V88.2137C183.621 82.8401 187.705 78.3895 193.011 77.9052C193.318 77.8883 193.626 77.8883 193.934 77.9052C199.665 77.9142 204.309 82.5989 204.319 88.3799V100.236H206.791C208.156 100.236 209.264 99.119 209.264 97.7421V88.3799C209.3 79.8299 202.459 72.8703 193.984 72.8328H193.884Z" fill="#8D96B2"/>
</g>
<mask id="mask4_1126_524" style="mask-type:luminance" maskUnits="userSpaceOnUse" x="0" y="0" width="288" height="288">
<path d="M0.203613 0.493896H287.021V287.312H0.203613V0.493896Z" fill="white"/>
</mask>
<g mask="url(#mask4_1126_524)">
<mask id="mask5_1126_524" style="mask-type:luminance" maskUnits="userSpaceOnUse" x="85" y="76" width="100" height="139">
<path d="M184.491 76.2192C178.683 76.2192 103.628 76.2192 103.628 76.2192L90.449 85.6011L85.5347 113.97V191.929C85.5347 191.929 145.4 191.929 147.187 191.929C148.974 191.929 149.198 193.493 149.198 194.61C149.198 195.727 150.314 214.267 163.494 214.267C176.673 214.267 178.46 202.205 178.46 195.503C178.46 188.802 178.46 88.9518 178.46 86.718C178.46 84.4842 181.141 77.7829 184.491 76.2192Z" fill="white"/>
</mask>
<g mask="url(#mask5_1126_524)">
<path d="M198.122 177.543C211.246 165.517 212.156 145.15 200.154 132.052C188.152 118.954 167.784 118.086 154.659 130.112C141.534 142.139 140.623 162.506 152.625 175.604C164.627 188.702 184.997 189.57 198.122 177.543Z" fill="#CAD8E9"/>
<path d="M198.122 177.543C211.246 165.517 212.156 145.15 200.154 132.052C188.152 118.954 167.784 118.086 154.659 130.112C141.534 142.139 140.623 162.506 152.625 175.604C164.627 188.702 184.997 189.57 198.122 177.543Z" stroke="#CAD8E9" strokeWidth="7.2" stroke-miterlimit="10"/>
</g>
</g>
<path d="M103.588 170.091H127.762" stroke="#8D96B2" strokeWidth="7.2" stroke-miterlimit="10" strokeLinecap="round"/>
<path d="M103.588 147.574H127.762" stroke="#8D96B2" strokeWidth="7.2" stroke-miterlimit="10" strokeLinecap="round"/>
<path d="M103.587 125.057H158.382" stroke="#8D96B2" strokeWidth="7.2" stroke-miterlimit="10" strokeLinecap="round"/>
<path d="M103.587 100.932H164.713" stroke="#8D96B2" strokeWidth="7.2" stroke-miterlimit="10" strokeLinecap="round"/>
<path d="M199.753 167.704C201.437 166.025 204.162 166.028 205.845 167.707L227.1 188.927C228.777 190.602 228.779 193.319 227.104 194.997L227.097 195.004C225.413 196.682 222.688 196.681 221.004 195.001L199.749 173.781C198.072 172.106 198.07 169.389 199.745 167.712L199.753 167.704Z" fill="#2260FE"/>
<path d="M204.287 172.093C217.412 160.066 218.321 139.699 206.32 126.602C194.317 113.504 173.949 112.635 160.825 124.662C147.7 136.688 146.789 157.056 158.791 170.154C170.793 183.251 191.163 184.119 204.287 172.093Z" fill="white"/>
<path d="M204.287 172.093C217.412 160.066 218.321 139.699 206.32 126.602C194.317 113.504 173.949 112.635 160.825 124.662C147.7 136.688 146.789 157.056 158.791 170.154C170.793 183.251 191.163 184.119 204.287 172.093Z" stroke="#2260FE" strokeWidth="7.2" stroke-miterlimit="10"/>
<path d="M194.443 155.607L191.394 158.654L183.547 150.808L175.759 158.594L172.694 155.53L180.482 147.741L172.634 139.893L175.682 136.845L183.529 144.693L191.317 136.905L194.383 139.971L186.595 147.76L194.443 155.607Z" fill="#2260FE"/>
</g>
</svg>
