<svg width="154" height="202" viewBox="0 0 154 202" fill="none" xmlns="http://www.w3.org/2000/svg">
<path d="M28.9227 174.029L137.092 157.199L112.953 2.0498L4.7767 18.9172C2.01856 19.3464 0.130664 21.9302 0.559848 24.6884V24.6896L23.1747 169.812C23.6007 172.561 26.1721 174.447 28.9227 174.029Z" fill="#8D96B2"/>
<path d="M28.9227 174.029L137.092 157.199L112.953 2.0498L4.7767 18.9172C2.01856 19.3464 0.130664 21.9302 0.559848 24.6884V24.6896L23.1747 169.812C23.6007 172.561 26.1721 174.447 28.9227 174.029Z" stroke="#8D96B2" stroke-miterlimit="10" strokeLinecap="round"/>
<path d="M30.9321 168.605L24.7586 169.567C23.8553 169.708 23.0088 169.088 22.8682 168.185L20.6967 154.235C20.5561 153.332 21.1746 152.484 22.0779 152.344L28.2501 151.384L30.9321 168.605Z" fill="white"/>
<path d="M30.9321 168.605L24.7586 169.567C23.8553 169.708 23.0088 169.088 22.8682 168.185L20.6967 154.235C20.5561 153.332 21.1746 152.484 22.0779 152.344L28.2501 151.384L30.9321 168.605Z" stroke="#8D96B2" stroke-miterlimit="10" strokeLinecap="round"/>
<path d="M28.1186 150.501L21.9451 151.462C21.0418 151.603 20.1953 150.984 20.0547 150.081L17.8832 136.13C17.7427 135.227 18.3605 134.381 19.2645 134.24L25.4367 133.28L28.1186 150.501Z" fill="#4A7FBD"/>
<path d="M25.2944 132.366L19.1209 133.328C18.2176 133.469 17.3711 132.85 17.2305 131.947L15.059 117.996C14.9184 117.093 15.5369 116.246 16.4402 116.106L22.6125 115.146L25.2944 132.366Z" fill="white"/>
<path d="M25.2944 132.366L19.1209 133.328C18.2176 133.469 17.3711 132.85 17.2305 131.947L15.059 117.996C14.9184 117.093 15.5369 116.246 16.4402 116.106L22.6125 115.146L25.2944 132.366Z" stroke="#8D96B2" stroke-miterlimit="10" strokeLinecap="round"/>
<path d="M22.4819 114.269L16.3084 115.23C15.4051 115.371 14.5586 114.752 14.418 113.849L12.2465 99.8984C12.1059 98.9951 12.7238 98.148 13.6277 98.008L19.8 97.0479L22.4819 114.269Z" fill="#4A7FBD"/>
<path d="M10.8318 79.902L14.5239 79.3272L5.10938 18.8545L118.283 1.24365L142.423 156.387L29.2547 173.978L17.2039 96.5507L13.5118 97.1255C12.6135 97.2598 11.7757 96.6425 11.6377 95.7448L9.43243 81.7949C9.29187 80.8915 9.91034 80.045 10.8137 79.9051C10.8199 79.9038 10.8262 79.9032 10.8318 79.902Z" fill="white"/>
<path d="M10.8318 79.902L14.5239 79.3272L5.10938 18.8545L118.283 1.24365L142.423 156.387L29.2547 173.978L17.2039 96.5507L13.5118 97.1255C12.6135 97.2598 11.7757 96.6425 11.6377 95.7448L9.43243 81.7949C9.29187 80.8915 9.91034 80.045 10.8137 79.9051C10.8199 79.9038 10.8262 79.9032 10.8318 79.902Z" stroke="#8D96B2" stroke-miterlimit="10" strokeLinecap="round"/>
<path d="M22.9326 51.8899L23.3074 60.3673L65.5384 53.4767L64.4327 46.3799L22.9326 51.8899Z" fill="#FCBF49"/>
<path d="M111.992 10.7332C112.166 11.942 113.287 12.781 114.496 12.6073C115.705 12.4336 116.544 11.3129 116.37 10.1041C116.196 8.89524 115.076 8.05562 113.867 8.22929C113.856 8.23116 113.846 8.23241 113.835 8.23429C112.641 8.42358 111.821 9.5362 111.992 10.7332Z" fill="#8D96B2"/>
<path d="M111.992 10.7332C112.166 11.942 113.287 12.781 114.496 12.6073C115.705 12.4336 116.544 11.3129 116.37 10.1041C116.196 8.89524 115.076 8.05562 113.867 8.22929C113.856 8.23116 113.846 8.23241 113.835 8.23429C112.641 8.42358 111.821 9.5362 111.992 10.7332Z" stroke="#8D96B2" stroke-miterlimit="10" strokeLinecap="round"/>
<path d="M114.383 10.0456L120.993 9.01477C121.308 8.94917 121.522 8.6543 121.486 8.33382C121.421 8.01834 121.126 7.80469 120.805 7.8403L114.221 8.85859C113.902 8.92168 113.686 9.21718 113.72 9.53953C113.78 9.85252 114.065 10.0705 114.383 10.0456Z" fill="white"/>
<path d="M114.383 10.0456L120.993 9.01477C121.308 8.94917 121.522 8.6543 121.486 8.33382C121.421 8.01834 121.126 7.80469 120.805 7.8403L114.221 8.85859C113.902 8.92168 113.686 9.21718 113.72 9.53953C113.78 9.85252 114.065 10.0705 114.383 10.0456Z" stroke="#8D96B2" stroke-miterlimit="10" strokeLinecap="round"/>
<path d="M114.66 11.6704L121.257 10.6458C121.575 10.5827 121.792 10.2873 121.757 9.9649C121.694 9.64692 121.398 9.43014 121.076 9.46512L114.466 10.4959C114.151 10.5615 113.937 10.8564 113.973 11.1769C114.039 11.4948 114.337 11.7091 114.66 11.6704Z" fill="white"/>
<path d="M114.66 11.6704L121.257 10.6458C121.575 10.5827 121.792 10.2873 121.757 9.9649C121.694 9.64692 121.398 9.43014 121.076 9.46512L114.466 10.4959C114.151 10.5615 113.937 10.8564 113.973 11.1769C114.039 11.4948 114.337 11.7091 114.66 11.6704Z" stroke="#8D96B2" stroke-miterlimit="10" strokeLinecap="round"/>
<path d="M113.136 17.9362C113.307 19.1456 114.426 19.9871 115.635 19.8159C116.845 19.6448 117.686 18.5253 117.515 17.3164C117.343 16.107 116.224 15.2655 115.015 15.4367C115.014 15.4373 115.012 15.4373 115.01 15.4373C113.803 15.611 112.966 16.7292 113.136 17.9362Z" fill="#8D96B2"/>
<path d="M113.136 17.9362C113.307 19.1456 114.426 19.9871 115.635 19.8159C116.845 19.6448 117.686 18.5253 117.515 17.3164C117.343 16.107 116.224 15.2655 115.015 15.4367C115.014 15.4373 115.012 15.4373 115.01 15.4373C113.803 15.611 112.966 16.7292 113.136 17.9362Z" stroke="#8D96B2" stroke-miterlimit="10" strokeLinecap="round"/>
<path d="M115.527 17.249L122.13 16.2245C122.449 16.1614 122.665 15.8659 122.63 15.5435C122.567 15.2255 122.271 15.0088 121.948 15.0437L115.339 16.0745C115.023 16.1407 114.81 16.435 114.846 16.7555C114.911 17.0709 115.207 17.2852 115.527 17.249Z" fill="white"/>
<path d="M115.527 17.249L122.13 16.2245C122.449 16.1614 122.665 15.8659 122.63 15.5435C122.567 15.2255 122.271 15.0088 121.948 15.0437L115.339 16.0745C115.023 16.1407 114.81 16.435 114.846 16.7555C114.911 17.0709 115.207 17.2852 115.527 17.249Z" stroke="#8D96B2" stroke-miterlimit="10" strokeLinecap="round"/>
<path d="M115.776 18.8549L122.386 17.831C122.701 17.7654 122.916 17.4706 122.879 17.1501C122.817 16.8321 122.521 16.6147 122.199 16.6497L115.595 17.6811C115.277 17.7442 115.061 18.0397 115.095 18.362C115.162 18.6775 115.456 18.8906 115.776 18.8549Z" fill="white"/>
<path d="M115.776 18.8549L122.386 17.831C122.701 17.7654 122.916 17.4706 122.879 17.1501C122.817 16.8321 122.521 16.6147 122.199 16.6497L115.595 17.6811C115.277 17.7442 115.061 18.0397 115.095 18.362C115.162 18.6775 115.456 18.8906 115.776 18.8549Z" stroke="#8D96B2" stroke-miterlimit="10" strokeLinecap="round"/>
<path d="M114.236 25.1453C114.409 26.3541 115.53 27.1937 116.739 27.0194C117.948 26.8458 118.787 25.725 118.614 24.5162C118.439 23.3074 117.319 22.4677 116.11 22.642L116.079 22.6464C114.885 22.8357 114.064 23.9483 114.236 25.1453Z" fill="#8D96B2"/>
<path d="M114.236 25.1453C114.409 26.3541 115.53 27.1937 116.739 27.0194C117.948 26.8458 118.787 25.725 118.614 24.5162C118.439 23.3074 117.319 22.4677 116.11 22.642L116.079 22.6464C114.885 22.8357 114.064 23.9483 114.236 25.1453Z" stroke="#8D96B2" stroke-miterlimit="10" strokeLinecap="round"/>
<path d="M116.647 24.477L123.257 23.4531C123.572 23.3875 123.786 23.0926 123.75 22.7722C123.687 22.4542 123.392 22.2368 123.069 22.2718L116.466 23.3032C116.147 23.3663 115.931 23.6618 115.965 23.9841C116.032 24.2996 116.327 24.5126 116.647 24.477Z" fill="white"/>
<path d="M116.647 24.477L123.257 23.4531C123.572 23.3875 123.786 23.0926 123.75 22.7722C123.687 22.4542 123.392 22.2368 123.069 22.2718L116.466 23.3032C116.147 23.3663 115.931 23.6618 115.965 23.9841C116.032 24.2996 116.327 24.5126 116.647 24.477Z" stroke="#8D96B2" stroke-miterlimit="10" strokeLinecap="round"/>
<path d="M116.884 26.089L123.487 25.0582C123.802 24.9957 124.019 24.7033 123.987 24.3835C123.925 24.0655 123.628 23.8481 123.305 23.8837L116.703 24.9145C116.387 24.977 116.17 25.2693 116.202 25.5892C116.266 25.9072 116.562 26.1246 116.884 26.089Z" fill="white"/>
<path d="M116.884 26.089L123.487 25.0582C123.802 24.9957 124.019 24.7033 123.987 24.3835C123.925 24.0655 123.628 23.8481 123.305 23.8837L116.703 24.9145C116.387 24.977 116.17 25.2693 116.202 25.5892C116.266 25.9072 116.562 26.1246 116.884 26.089Z" stroke="#8D96B2" stroke-miterlimit="10" strokeLinecap="round"/>
<path d="M115.354 32.3546C115.525 33.5641 116.643 34.4056 117.853 34.2344C119.062 34.0632 119.904 32.9437 119.733 31.7349C119.562 30.5254 118.442 29.6839 117.233 29.8551C117.231 29.8551 117.23 29.8557 117.228 29.8557C116.021 30.0294 115.184 31.1477 115.354 32.3546Z" fill="#8D96B2"/>
<path d="M115.354 32.3546C115.525 33.5641 116.643 34.4056 117.853 34.2344C119.062 34.0632 119.904 32.9437 119.733 31.7349C119.562 30.5254 118.442 29.6839 117.233 29.8551C117.231 29.8551 117.23 29.8557 117.228 29.8557C116.021 30.0294 115.184 31.1477 115.354 32.3546Z" stroke="#8D96B2" stroke-miterlimit="10" strokeLinecap="round"/>
<path d="M117.77 31.6674L124.379 30.6367C124.695 30.5742 124.911 30.2824 124.879 29.9626C124.816 29.6446 124.52 29.4272 124.198 29.4622L117.589 30.4936C117.268 30.5411 117.047 30.8397 117.094 31.1608C117.095 31.1633 117.094 31.1652 117.095 31.1677C117.158 31.4831 117.45 31.6993 117.77 31.6674Z" fill="white"/>
<path d="M117.77 31.6674L124.379 30.6367C124.695 30.5742 124.911 30.2824 124.879 29.9626C124.816 29.6446 124.52 29.4272 124.198 29.4622L117.589 30.4936C117.268 30.5411 117.047 30.8397 117.094 31.1608C117.095 31.1633 117.094 31.1652 117.095 31.1677C117.158 31.4831 117.45 31.6993 117.77 31.6674Z" stroke="#8D96B2" stroke-miterlimit="10" strokeLinecap="round"/>
<path d="M118.02 33.2979L124.629 32.2671C124.95 32.2196 125.172 31.9216 125.125 31.6005C125.125 31.5955 125.124 31.5912 125.123 31.5862C125.075 31.265 124.777 31.0439 124.456 31.0914C124.454 31.092 124.451 31.092 124.448 31.0926L117.839 32.1172C117.523 32.1828 117.31 32.4776 117.346 32.7981C117.408 33.1136 117.7 33.3297 118.02 33.2979Z" fill="white"/>
<path d="M118.02 33.2979L124.629 32.2671C124.95 32.2196 125.172 31.9216 125.125 31.6005C125.125 31.5955 125.124 31.5912 125.123 31.5862C125.075 31.265 124.777 31.0439 124.456 31.0914C124.454 31.092 124.451 31.092 124.448 31.0926L117.839 32.1172C117.523 32.1828 117.31 32.4776 117.346 32.7981C117.408 33.1136 117.7 33.3297 118.02 33.2979Z" stroke="#8D96B2" stroke-miterlimit="10" strokeLinecap="round"/>
<path d="M116.477 39.5637C116.65 40.7726 117.771 41.6116 118.981 41.4379C120.19 41.2642 121.029 40.1435 120.855 38.9346C120.681 37.7258 119.56 36.8862 118.351 37.0599C118.34 37.0617 118.33 37.0636 118.32 37.0649C117.126 37.2541 116.305 38.3668 116.477 39.5637Z" fill="#8D96B2"/>
<path d="M116.477 39.5637C116.65 40.7726 117.771 41.6116 118.981 41.4379C120.19 41.2642 121.029 40.1435 120.855 38.9346C120.681 37.7258 119.56 36.8862 118.351 37.0599C118.34 37.0617 118.33 37.0636 118.32 37.0649C117.126 37.2541 116.305 38.3668 116.477 39.5637Z" stroke="#8D96B2" stroke-miterlimit="10" strokeLinecap="round"/>
<path d="M118.888 38.877L125.498 37.8462C125.813 37.7806 126.027 37.4857 125.991 37.1652C125.944 36.8448 125.644 36.623 125.324 36.6705C125.321 36.6711 125.319 36.6711 125.316 36.6717L118.707 37.6963C118.392 37.7618 118.177 38.0573 118.213 38.3772C118.276 38.6927 118.568 38.9088 118.888 38.877Z" fill="white"/>
<path d="M118.888 38.877L125.498 37.8462C125.813 37.7806 126.027 37.4857 125.991 37.1652C125.944 36.8448 125.644 36.623 125.324 36.6705C125.321 36.6711 125.319 36.6711 125.316 36.6717L118.707 37.6963C118.392 37.7618 118.177 38.0573 118.213 38.3772C118.276 38.6927 118.568 38.9088 118.888 38.877Z" stroke="#8D96B2" stroke-miterlimit="10" strokeLinecap="round"/>
<path d="M119.145 40.5075L125.748 39.4705C126.066 39.4074 126.283 39.1119 126.248 38.7895C126.183 38.474 125.887 38.2597 125.567 38.296L118.964 39.3205C118.645 39.3836 118.429 39.6791 118.464 40.0015C118.524 40.3219 118.82 40.5425 119.145 40.5075Z" fill="white"/>
<path d="M119.145 40.5075L125.748 39.4705C126.066 39.4074 126.283 39.1119 126.248 38.7895C126.183 38.474 125.887 38.2597 125.567 38.296L118.964 39.3205C118.645 39.3836 118.429 39.6791 118.464 40.0015C118.524 40.3219 118.82 40.5425 119.145 40.5075Z" stroke="#8D96B2" stroke-miterlimit="10" strokeLinecap="round"/>
<path d="M117.596 46.773C117.784 47.98 118.914 48.8059 120.121 48.6178C121.328 48.4291 122.154 47.2984 121.966 46.0921C121.779 44.8964 120.667 44.073 119.47 44.2429C118.26 44.4147 117.419 45.5342 117.591 46.7437C117.592 46.753 117.594 46.763 117.596 46.773Z" fill="#8D96B2"/>
<path d="M117.596 46.773C117.784 47.98 118.914 48.8059 120.121 48.6178C121.328 48.4291 122.154 47.2984 121.966 46.0921C121.779 44.8964 120.667 44.073 119.47 44.2429C118.26 44.4147 117.419 45.5342 117.591 46.7437C117.592 46.753 117.594 46.763 117.596 46.773Z" stroke="#8D96B2" stroke-miterlimit="10" strokeLinecap="round"/>
<path d="M120.006 46.0856L126.609 45.0548C126.927 44.9923 127.145 44.6962 127.109 44.3739C127.043 44.0584 126.749 43.8447 126.427 43.8803L119.825 44.9049C119.506 44.968 119.29 45.2635 119.325 45.5858C119.388 45.9038 119.684 46.1212 120.006 46.0856Z" fill="white"/>
<path d="M120.006 46.0856L126.609 45.0548C126.927 44.9923 127.145 44.6962 127.109 44.3739C127.043 44.0584 126.749 43.8447 126.427 43.8803L119.825 44.9049C119.506 44.968 119.29 45.2635 119.325 45.5858C119.388 45.9038 119.684 46.1212 120.006 46.0856Z" stroke="#8D96B2" stroke-miterlimit="10" strokeLinecap="round"/>
<path d="M120.27 47.7104L126.879 46.6859C127.197 46.6228 127.414 46.3273 127.379 46.0049C127.316 45.687 127.02 45.4702 126.698 45.5052L120.089 46.5359C119.773 46.6015 119.559 46.8964 119.595 47.2169C119.66 47.5299 119.952 47.7429 120.27 47.7104Z" fill="white"/>
<path d="M120.27 47.7104L126.879 46.6859C127.197 46.6228 127.414 46.3273 127.379 46.0049C127.316 45.687 127.02 45.4702 126.698 45.5052L120.089 46.5359C119.773 46.6015 119.559 46.8964 119.595 47.2169C119.66 47.5299 119.952 47.7429 120.27 47.7104Z" stroke="#8D96B2" stroke-miterlimit="10" strokeLinecap="round"/>
<path d="M118.719 53.9759C118.893 55.1853 120.013 56.0243 121.223 55.85C122.432 55.677 123.27 54.5556 123.097 53.3468C122.923 52.1379 121.802 51.2983 120.593 51.4726C120.583 51.4739 120.573 51.4757 120.562 51.477C119.368 51.6663 118.547 52.7789 118.719 53.9759Z" fill="#8D96B2"/>
<path d="M118.719 53.9759C118.893 55.1853 120.013 56.0243 121.223 55.85C122.432 55.677 123.27 54.5556 123.097 53.3468C122.923 52.1379 121.802 51.2983 120.593 51.4726C120.583 51.4739 120.573 51.4757 120.562 51.477C119.368 51.6663 118.547 52.7789 118.719 53.9759Z" stroke="#8D96B2" stroke-miterlimit="10" strokeLinecap="round"/>
<path d="M121.131 53.2889L127.74 52.2644C128.058 52.2013 128.276 51.9058 128.24 51.5835C128.174 51.268 127.88 51.0537 127.559 51.0899L120.95 52.1151C120.635 52.1807 120.42 52.4756 120.456 52.796C120.499 53.114 120.793 53.3358 121.111 53.2921C121.118 53.2908 121.125 53.2896 121.131 53.2889Z" fill="white"/>
<path d="M121.131 53.2889L127.74 52.2644C128.058 52.2013 128.276 51.9058 128.24 51.5835C128.174 51.268 127.88 51.0537 127.559 51.0899L120.95 52.1151C120.635 52.1807 120.42 52.4756 120.456 52.796C120.499 53.114 120.793 53.3358 121.111 53.2921C121.118 53.2908 121.125 53.2896 121.131 53.2889Z" stroke="#8D96B2" stroke-miterlimit="10" strokeLinecap="round"/>
<path d="M121.388 54.9199L127.997 53.896C128.313 53.8304 128.526 53.5355 128.491 53.215C128.428 52.897 128.132 52.6796 127.81 52.7146L121.207 53.746C120.889 53.8091 120.672 54.1046 120.707 54.427C120.772 54.7425 121.067 54.9555 121.388 54.9199Z" fill="white"/>
<path d="M121.388 54.9199L127.997 53.896C128.313 53.8304 128.526 53.5355 128.491 53.215C128.428 52.897 128.132 52.6796 127.81 52.7146L121.207 53.746C120.889 53.8091 120.672 54.1046 120.707 54.427C120.772 54.7425 121.067 54.9555 121.388 54.9199Z" stroke="#8D96B2" stroke-miterlimit="10" strokeLinecap="round"/>
<path d="M119.845 61.1853C120.018 62.3948 121.139 63.2338 122.348 63.0595C123.557 62.8858 124.397 61.7651 124.223 60.5562C124.049 59.3474 122.929 58.5078 121.719 58.6821C121.709 58.6833 121.698 58.6852 121.687 58.6865C120.493 58.8757 119.673 59.9884 119.845 61.1853Z" fill="#8D96B2"/>
<path d="M119.845 61.1853C120.018 62.3948 121.139 63.2338 122.348 63.0595C123.557 62.8858 124.397 61.7651 124.223 60.5562C124.049 59.3474 122.929 58.5078 121.719 58.6821C121.709 58.6833 121.698 58.6852 121.687 58.6865C120.493 58.8757 119.673 59.9884 119.845 61.1853Z" stroke="#8D96B2" stroke-miterlimit="10" strokeLinecap="round"/>
<path d="M122.256 60.4984L128.865 59.462C129.181 59.3958 129.395 59.1009 129.359 58.7804C129.297 58.4625 129 58.2451 128.678 58.2807L122.075 59.3115C121.757 59.3746 121.54 59.67 121.575 59.9924C121.636 60.3129 121.932 60.5334 122.256 60.4984Z" fill="white"/>
<path d="M122.256 60.4984L128.865 59.462C129.181 59.3958 129.395 59.1009 129.359 58.7804C129.297 58.4625 129 58.2451 128.678 58.2807L122.075 59.3115C121.757 59.3746 121.54 59.67 121.575 59.9924C121.636 60.3129 121.932 60.5334 122.256 60.4984Z" stroke="#8D96B2" stroke-miterlimit="10" strokeLinecap="round"/>
<path d="M122.506 62.1289L129.109 61.0987C129.424 61.0362 129.641 60.7439 129.609 60.424C129.547 60.106 129.251 59.8886 128.928 59.9236L122.319 60.955C122.003 61.0206 121.79 61.3155 121.825 61.636C121.891 61.9514 122.186 62.1645 122.506 62.1289Z" fill="white"/>
<path d="M122.506 62.1289L129.109 61.0987C129.424 61.0362 129.641 60.7439 129.609 60.424C129.547 60.106 129.251 59.8886 128.928 59.9236L122.319 60.955C122.003 61.0206 121.79 61.3155 121.825 61.636C121.891 61.9514 122.186 62.1645 122.506 62.1289Z" stroke="#8D96B2" stroke-miterlimit="10" strokeLinecap="round"/>
<path d="M120.962 68.3947C121.134 69.6041 122.253 70.4456 123.462 70.2744C124.671 70.1033 125.512 68.9838 125.342 67.7749C125.17 66.5655 124.051 65.724 122.842 65.8952C122.84 65.8958 122.839 65.8958 122.837 65.8958C121.63 66.0694 120.792 67.1877 120.962 68.3947Z" fill="#8D96B2"/>
<path d="M120.962 68.3947C121.134 69.6041 122.253 70.4456 123.462 70.2744C124.671 70.1033 125.512 68.9838 125.342 67.7749C125.17 66.5655 124.051 65.724 122.842 65.8952C122.84 65.8958 122.839 65.8958 122.837 65.8958C121.63 66.0694 120.792 67.1877 120.962 68.3947Z" stroke="#8D96B2" stroke-miterlimit="10" strokeLinecap="round"/>
<path d="M123.381 67.7075L130.004 66.683C130.321 66.6199 130.538 66.3244 130.503 66.002C130.44 65.684 130.144 65.4672 129.822 65.5022L123.212 66.533C122.897 66.5992 122.683 66.8935 122.719 67.214C122.784 67.5219 123.067 67.7337 123.381 67.7075Z" fill="white"/>
<path d="M123.381 67.7075L130.004 66.683C130.321 66.6199 130.538 66.3244 130.503 66.002C130.44 65.684 130.144 65.4672 129.822 65.5022L123.212 66.533C122.897 66.5992 122.683 66.8935 122.719 67.214C122.784 67.5219 123.067 67.7337 123.381 67.7075Z" stroke="#8D96B2" stroke-miterlimit="10" strokeLinecap="round"/>
<path d="M123.63 69.338L130.24 68.3072C130.555 68.2417 130.769 67.9462 130.734 67.6263C130.668 67.3108 130.373 67.0972 130.053 67.1328L123.449 68.1636C123.134 68.226 122.917 68.5184 122.95 68.8383C123.013 69.1562 123.308 69.3736 123.63 69.338Z" fill="white"/>
<path d="M123.63 69.338L130.24 68.3072C130.555 68.2417 130.769 67.9462 130.734 67.6263C130.668 67.3108 130.373 67.0972 130.053 67.1328L123.449 68.1636C123.134 68.226 122.917 68.5184 122.95 68.8383C123.013 69.1562 123.308 69.3736 123.63 69.338Z" stroke="#8D96B2" stroke-miterlimit="10" strokeLinecap="round"/>
<path d="M122.088 75.6038C122.261 76.8126 123.383 77.6516 124.591 77.4779C125.8 77.3049 126.64 76.1835 126.466 74.9747C126.292 73.7659 125.172 72.9262 123.962 73.1005C123.952 73.1018 123.941 73.1037 123.93 73.1049C122.736 73.2942 121.916 74.4068 122.088 75.6038Z" fill="#8D96B2"/>
<path d="M122.088 75.6038C122.261 76.8126 123.383 77.6516 124.591 77.4779C125.8 77.3049 126.64 76.1835 126.466 74.9747C126.292 73.7659 125.172 72.9262 123.962 73.1005C123.952 73.1018 123.941 73.1037 123.93 73.1049C122.736 73.2942 121.916 74.4068 122.088 75.6038Z" stroke="#8D96B2" stroke-miterlimit="10" strokeLinecap="round"/>
<path d="M124.499 74.9171L131.109 73.8863C131.424 73.8208 131.638 73.5259 131.602 73.2054C131.537 72.8899 131.242 72.6763 130.921 72.7119L124.318 73.7427C124.002 73.8058 123.786 74.0975 123.818 74.4174C123.881 74.7353 124.177 74.9527 124.499 74.9171Z" fill="white"/>
<path d="M124.499 74.9171L131.109 73.8863C131.424 73.8208 131.638 73.5259 131.602 73.2054C131.537 72.8899 131.242 72.6763 130.921 72.7119L124.318 73.7427C124.002 73.8058 123.786 74.0975 123.818 74.4174C123.881 74.7353 124.177 74.9527 124.499 74.9171Z" stroke="#8D96B2" stroke-miterlimit="10" strokeLinecap="round"/>
<path d="M124.755 76.547L131.358 75.5162C131.676 75.4531 131.894 75.1576 131.858 74.8353C131.793 74.5198 131.498 74.3062 131.177 74.3418L124.568 75.3663C124.252 75.4319 124.039 75.7268 124.074 76.0472C124.137 76.3652 124.433 76.5826 124.755 76.547Z" fill="white"/>
<path d="M124.755 76.547L131.358 75.5162C131.676 75.4531 131.894 75.1576 131.858 74.8353C131.793 74.5198 131.498 74.3062 131.177 74.3418L124.568 75.3663C124.252 75.4319 124.039 75.7268 124.074 76.0472C124.137 76.3652 124.433 76.5826 124.755 76.547Z" stroke="#8D96B2" stroke-miterlimit="10" strokeLinecap="round"/>
<path d="M123.205 82.8131C123.393 84.02 124.523 84.8459 125.731 84.6579C126.938 84.4692 127.763 83.3391 127.575 82.1321C127.389 80.9364 126.277 80.113 125.079 80.2829C123.87 80.4547 123.029 81.5742 123.2 82.7837C123.202 82.7937 123.203 82.8031 123.205 82.8131Z" fill="#8D96B2"/>
<path d="M123.205 82.8131C123.393 84.02 124.523 84.8459 125.731 84.6579C126.938 84.4692 127.763 83.3391 127.575 82.1321C127.389 80.9364 126.277 80.113 125.079 80.2829C123.87 80.4547 123.029 81.5742 123.2 82.7837C123.202 82.7937 123.203 82.8031 123.205 82.8131Z" stroke="#8D96B2" stroke-miterlimit="10" strokeLinecap="round"/>
<path d="M125.63 82.1262L132.233 81.0955C132.551 81.0324 132.769 80.7362 132.733 80.4145C132.668 80.099 132.373 79.8847 132.052 79.921L125.443 80.9449C125.127 81.0111 124.914 81.306 124.949 81.6258C125.012 81.9444 125.308 82.1618 125.63 82.1262Z" fill="white"/>
<path d="M125.63 82.1262L132.233 81.0955C132.551 81.0324 132.769 80.7362 132.733 80.4145C132.668 80.099 132.373 79.8847 132.052 79.921L125.443 80.9449C125.127 81.0111 124.914 81.306 124.949 81.6258C125.012 81.9444 125.308 82.1618 125.63 82.1262Z" stroke="#8D96B2" stroke-miterlimit="10" strokeLinecap="round"/>
<path d="M125.871 83.7501L132.499 82.7256C132.815 82.66 133.029 82.3651 132.993 82.0452C132.949 81.7266 132.656 81.5042 132.339 81.548L132.318 81.5511L125.69 82.5756C125.372 82.6387 125.155 82.9342 125.19 83.2566C125.256 83.5721 125.551 83.7863 125.871 83.7501Z" fill="white"/>
<path d="M125.871 83.7501L132.499 82.7256C132.815 82.66 133.029 82.3651 132.993 82.0452C132.949 81.7266 132.656 81.5042 132.339 81.548L132.318 81.5511L125.69 82.5756C125.372 82.6387 125.155 82.9342 125.19 83.2566C125.256 83.5721 125.551 83.7863 125.871 83.7501Z" stroke="#8D96B2" stroke-miterlimit="10" strokeLinecap="round"/>
<path d="M124.331 90.0159C124.505 91.2247 125.626 92.0637 126.835 91.89C128.043 91.7164 128.883 90.5956 128.709 89.3862C128.535 88.178 127.415 87.3383 126.205 87.512C126.195 87.5133 126.185 87.5151 126.174 87.517C124.98 87.7063 124.16 88.8189 124.331 90.0159Z" fill="#8D96B2"/>
<path d="M124.331 90.0159C124.505 91.2247 125.626 92.0637 126.835 91.89C128.043 91.7164 128.883 90.5956 128.709 89.3862C128.535 88.178 127.415 87.3383 126.205 87.512C126.195 87.5133 126.185 87.5151 126.174 87.517C124.98 87.7063 124.16 88.8189 124.331 90.0159Z" stroke="#8D96B2" stroke-miterlimit="10" strokeLinecap="round"/>
<path d="M126.742 89.3355L133.352 88.3053C133.668 88.2391 133.882 87.9442 133.845 87.6244C133.78 87.3114 133.489 87.0977 133.171 87.1302L126.562 88.1548C126.243 88.2178 126.026 88.514 126.061 88.8357C126.124 89.1543 126.42 89.3711 126.742 89.3355Z" fill="white"/>
<path d="M126.742 89.3355L133.352 88.3053C133.668 88.2391 133.882 87.9442 133.845 87.6244C133.78 87.3114 133.489 87.0977 133.171 87.1302L126.562 88.1548C126.243 88.2178 126.026 88.514 126.061 88.8357C126.124 89.1543 126.42 89.3711 126.742 89.3355Z" stroke="#8D96B2" stroke-miterlimit="10" strokeLinecap="round"/>
<path d="M126.996 90.9591L133.599 89.9345C133.917 89.8721 134.135 89.5766 134.099 89.2542C134.037 88.9362 133.741 88.7182 133.418 88.7538L126.815 89.7852C126.497 89.8483 126.28 90.1438 126.315 90.4662C126.381 90.7816 126.676 90.9953 126.996 90.9591Z" fill="white"/>
<path d="M126.996 90.9591L133.599 89.9345C133.917 89.8721 134.135 89.5766 134.099 89.2542C134.037 88.9362 133.741 88.7182 133.418 88.7538L126.815 89.7852C126.497 89.8483 126.28 90.1438 126.315 90.4662C126.381 90.7816 126.676 90.9953 126.996 90.9591Z" stroke="#8D96B2" stroke-miterlimit="10" strokeLinecap="round"/>
<path d="M125.448 97.2257C125.619 98.4352 126.738 99.276 127.948 99.1055C129.157 98.9337 129.999 97.8148 129.827 96.6054C129.656 95.3959 128.537 94.555 127.328 94.7256C127.326 94.7262 127.324 94.7262 127.322 94.7268C126.117 94.9036 125.281 96.0194 125.448 97.2257Z" fill="#8D96B2"/>
<path d="M125.448 97.2257C125.619 98.4352 126.738 99.276 127.948 99.1055C129.157 98.9337 129.999 97.8148 129.827 96.6054C129.656 95.3959 128.537 94.555 127.328 94.7256C127.326 94.7262 127.324 94.7262 127.322 94.7268C126.117 94.9036 125.281 96.0194 125.448 97.2257Z" stroke="#8D96B2" stroke-miterlimit="10" strokeLinecap="round"/>
<path d="M127.867 96.5385L134.47 95.514C134.789 95.4515 135.005 95.1554 134.97 94.8337C134.907 94.5151 134.612 94.2983 134.289 94.3339L127.686 95.3641C127.367 95.4272 127.151 95.7227 127.186 96.045C127.252 96.3611 127.547 96.5748 127.867 96.5385Z" fill="white"/>
<path d="M127.867 96.5385L134.47 95.514C134.789 95.4515 135.005 95.1554 134.97 94.8337C134.907 94.5151 134.612 94.2983 134.289 94.3339L127.686 95.3641C127.367 95.4272 127.151 95.7227 127.186 96.045C127.252 96.3611 127.547 96.5748 127.867 96.5385Z" stroke="#8D96B2" stroke-miterlimit="10" strokeLinecap="round"/>
<path d="M128.129 98.1932L134.738 97.1687C135.054 97.1031 135.267 96.8076 135.232 96.4877C135.169 96.1723 134.876 95.9561 134.556 95.988L127.947 97.0194C127.632 97.085 127.417 97.3798 127.453 97.7003C127.501 98.0214 127.8 98.2426 128.12 98.1951C128.123 98.1945 128.126 98.1939 128.129 98.1932Z" fill="white"/>
<path d="M128.129 98.1932L134.738 97.1687C135.054 97.1031 135.267 96.8076 135.232 96.4877C135.169 96.1723 134.876 95.9561 134.556 95.988L127.947 97.0194C127.632 97.085 127.417 97.3798 127.453 97.7003C127.501 98.0214 127.8 98.2426 128.12 98.1951C128.123 98.1945 128.126 98.1939 128.129 98.1932Z" stroke="#8D96B2" stroke-miterlimit="10" strokeLinecap="round"/>
<path d="M126.574 104.441C126.748 105.651 127.869 106.489 129.078 106.315C130.287 106.142 131.126 105.021 130.953 103.812C130.778 102.603 129.658 101.764 128.449 101.937C128.438 101.939 128.428 101.94 128.417 101.942C127.224 102.132 126.403 103.244 126.574 104.441Z" fill="#8D96B2"/>
<path d="M126.574 104.441C126.748 105.651 127.869 106.489 129.078 106.315C130.287 106.142 131.126 105.021 130.953 103.812C130.778 102.603 129.658 101.764 128.449 101.937C128.438 101.939 128.428 101.94 128.417 101.942C127.224 102.132 126.403 103.244 126.574 104.441Z" stroke="#8D96B2" stroke-miterlimit="10" strokeLinecap="round"/>
<path d="M128.984 103.747L135.625 102.722C135.946 102.675 136.168 102.378 136.121 102.057C136.12 102.052 136.119 102.047 136.119 102.043C136.055 101.727 135.764 101.51 135.444 101.543L128.803 102.566C128.482 102.614 128.26 102.912 128.307 103.233C128.308 103.238 128.308 103.243 128.31 103.248C128.353 103.569 128.65 103.794 128.971 103.749C128.975 103.749 128.98 103.747 128.984 103.747Z" fill="white"/>
<path d="M128.984 103.747L135.625 102.722C135.946 102.675 136.168 102.378 136.121 102.057C136.12 102.052 136.119 102.047 136.119 102.043C136.055 101.727 135.764 101.51 135.444 101.543L128.803 102.566C128.482 102.614 128.26 102.912 128.307 103.233C128.308 103.238 128.308 103.243 128.31 103.248C128.353 103.569 128.65 103.794 128.971 103.749C128.975 103.749 128.98 103.747 128.984 103.747Z" stroke="#8D96B2" stroke-miterlimit="10" strokeLinecap="round"/>
<path d="M129.239 105.378L135.842 104.347C136.164 104.303 136.389 104.007 136.345 103.686C136.344 103.681 136.343 103.676 136.342 103.673C136.28 103.355 135.984 103.137 135.661 103.173L129.059 104.204C128.743 104.267 128.526 104.558 128.558 104.878C128.621 105.196 128.917 105.414 129.239 105.378Z" fill="white"/>
<path d="M129.239 105.378L135.842 104.347C136.164 104.303 136.389 104.007 136.345 103.686C136.344 103.681 136.343 103.676 136.342 103.673C136.28 103.355 135.984 103.137 135.661 103.173L129.059 104.204C128.743 104.267 128.526 104.558 128.558 104.878C128.621 105.196 128.917 105.414 129.239 105.378Z" stroke="#8D96B2" stroke-miterlimit="10" strokeLinecap="round"/>
<path d="M127.691 111.644C127.862 112.853 128.981 113.694 130.191 113.523C131.4 113.352 132.242 112.233 132.071 111.023C131.899 109.814 130.78 108.973 129.571 109.144C129.569 109.144 129.567 109.144 129.565 109.145C128.36 109.322 127.524 110.437 127.691 111.644Z" fill="#8D96B2"/>
<path d="M127.691 111.644C127.862 112.853 128.981 113.694 130.191 113.523C131.4 113.352 132.242 112.233 132.071 111.023C131.899 109.814 130.78 108.973 129.571 109.144C129.569 109.144 129.567 109.144 129.565 109.145C128.36 109.322 127.524 110.437 127.691 111.644Z" stroke="#8D96B2" stroke-miterlimit="10" strokeLinecap="round"/>
<path d="M130.109 110.956L136.711 109.926C137.027 109.863 137.244 109.571 137.212 109.252C137.149 108.933 136.853 108.716 136.531 108.752L129.927 109.782C129.612 109.845 129.395 110.137 129.427 110.457C129.49 110.775 129.786 110.991 130.109 110.956Z" fill="white"/>
<path d="M130.109 110.956L136.711 109.926C137.027 109.863 137.244 109.571 137.212 109.252C137.149 108.933 136.853 108.716 136.531 108.752L129.927 109.782C129.612 109.845 129.395 110.137 129.427 110.457C129.49 110.775 129.786 110.991 130.109 110.956Z" stroke="#8D96B2" stroke-miterlimit="10" strokeLinecap="round"/>
<path d="M130.365 112.562L136.968 111.531C137.286 111.468 137.503 111.172 137.468 110.85C137.402 110.535 137.106 110.321 136.786 110.357L130.176 111.381C129.861 111.447 129.648 111.743 129.684 112.062C129.747 112.38 130.042 112.598 130.365 112.562Z" fill="white"/>
<path d="M130.365 112.562L136.968 111.531C137.286 111.468 137.503 111.172 137.468 110.85C137.402 110.535 137.106 110.321 136.786 110.357L130.176 111.381C129.861 111.447 129.648 111.743 129.684 112.062C129.747 112.38 130.042 112.598 130.365 112.562Z" stroke="#8D96B2" stroke-miterlimit="10" strokeLinecap="round"/>
<path d="M128.815 118.854C128.988 120.063 130.109 120.902 131.319 120.728C132.527 120.554 133.366 119.434 133.193 118.224C133.019 117.016 131.898 116.176 130.689 116.35C130.678 116.351 130.668 116.353 130.658 116.355C129.464 116.544 128.643 117.657 128.815 118.854Z" fill="#8D96B2"/>
<path d="M128.815 118.854C128.988 120.063 130.109 120.902 131.319 120.728C132.527 120.554 133.366 119.434 133.193 118.224C133.019 117.016 131.898 116.176 130.689 116.35C130.678 116.351 130.668 116.353 130.658 116.355C129.464 116.544 128.643 117.657 128.815 118.854Z" stroke="#8D96B2" stroke-miterlimit="10" strokeLinecap="round"/>
<path d="M131.252 118.185L137.855 117.154C138.173 117.091 138.391 116.795 138.355 116.473C138.29 116.158 137.995 115.944 137.674 115.979L131.065 117.004C130.749 117.07 130.536 117.365 130.571 117.685C130.634 118.003 130.93 118.22 131.252 118.185Z" fill="white"/>
<path d="M131.252 118.185L137.855 117.154C138.173 117.091 138.391 116.795 138.355 116.473C138.29 116.158 137.995 115.944 137.674 115.979L131.065 117.004C130.749 117.07 130.536 117.365 130.571 117.685C130.634 118.003 130.93 118.22 131.252 118.185Z" stroke="#8D96B2" stroke-miterlimit="10" strokeLinecap="round"/>
<path d="M131.484 119.797L138.124 118.766C138.44 118.701 138.653 118.405 138.618 118.086C138.552 117.77 138.257 117.555 137.937 117.591L131.334 118.616C131.016 118.68 130.798 118.975 130.834 119.297C130.896 119.602 131.172 119.815 131.484 119.797Z" fill="white"/>
<path d="M131.484 119.797L138.124 118.766C138.44 118.701 138.653 118.405 138.618 118.086C138.552 117.77 138.257 117.555 137.937 117.591L131.334 118.616C131.016 118.68 130.798 118.975 130.834 119.297C130.896 119.602 131.172 119.815 131.484 119.797Z" stroke="#8D96B2" stroke-miterlimit="10" strokeLinecap="round"/>
<path d="M129.941 126.063C130.129 127.27 131.259 128.095 132.466 127.907C133.673 127.719 134.499 126.588 134.311 125.381C134.124 124.186 133.013 123.363 131.815 123.532C130.605 123.704 129.765 124.824 129.936 126.033C129.937 126.043 129.939 126.052 129.941 126.063Z" fill="#8D96B2"/>
<path d="M129.941 126.063C130.129 127.27 131.259 128.095 132.466 127.907C133.673 127.719 134.499 126.588 134.311 125.381C134.124 124.186 133.013 123.363 131.815 123.532C130.605 123.704 129.765 124.824 129.936 126.033C129.937 126.043 129.939 126.052 129.941 126.063Z" stroke="#8D96B2" stroke-miterlimit="10" strokeLinecap="round"/>
<path d="M132.352 125.375L138.962 124.345C139.277 124.279 139.492 123.983 139.455 123.663C139.384 123.342 139.075 123.132 138.749 123.182L132.146 124.207C131.828 124.269 131.611 124.565 131.646 124.888C131.715 125.211 132.026 125.426 132.352 125.375Z" fill="white"/>
<path d="M132.352 125.375L138.962 124.345C139.277 124.279 139.492 123.983 139.455 123.663C139.384 123.342 139.075 123.132 138.749 123.182L132.146 124.207C131.828 124.269 131.611 124.565 131.646 124.888C131.715 125.211 132.026 125.426 132.352 125.375Z" stroke="#8D96B2" stroke-miterlimit="10" strokeLinecap="round"/>
<path d="M132.608 127L139.211 125.975C139.529 125.912 139.746 125.616 139.711 125.295C139.648 124.977 139.352 124.759 139.03 124.795L132.42 125.825C132.104 125.891 131.891 126.186 131.927 126.507C131.992 126.822 132.287 127.036 132.608 127Z" fill="white"/>
<path d="M132.608 127L139.211 125.975C139.529 125.912 139.746 125.616 139.711 125.295C139.648 124.977 139.352 124.759 139.03 124.795L132.42 125.825C132.104 125.891 131.891 126.186 131.927 126.507C131.992 126.822 132.287 127.036 132.608 127Z" stroke="#8D96B2" stroke-miterlimit="10" strokeLinecap="round"/>
<path d="M131.058 133.265C131.232 134.474 132.352 135.313 133.562 135.14C134.771 134.966 135.609 133.845 135.436 132.636C135.262 131.427 134.141 130.588 132.932 130.762C132.921 130.763 132.911 130.765 132.901 130.766C131.707 130.955 130.886 132.068 131.058 133.265Z" fill="#8D96B2"/>
<path d="M131.058 133.265C131.232 134.474 132.352 135.313 133.562 135.14C134.771 134.966 135.609 133.845 135.436 132.636C135.262 131.427 134.141 130.588 132.932 130.762C132.921 130.763 132.911 130.765 132.901 130.766C131.707 130.955 130.886 132.068 131.058 133.265Z" stroke="#8D96B2" stroke-miterlimit="10" strokeLinecap="round"/>
<path d="M133.476 132.554L140.079 131.529C140.397 131.466 140.614 131.17 140.579 130.848C140.532 130.527 140.233 130.305 139.913 130.353L139.898 130.354L133.288 131.379C132.973 131.445 132.759 131.74 132.795 132.06C132.842 132.381 133.14 132.603 133.461 132.556C133.466 132.555 133.471 132.554 133.476 132.554Z" fill="white"/>
<path d="M133.476 132.554L140.079 131.529C140.397 131.466 140.614 131.17 140.579 130.848C140.532 130.527 140.233 130.305 139.913 130.353L139.898 130.354L133.288 131.379C132.973 131.445 132.759 131.74 132.795 132.06C132.842 132.381 133.14 132.603 133.461 132.556C133.466 132.555 133.471 132.554 133.476 132.554Z" stroke="#8D96B2" stroke-miterlimit="10" strokeLinecap="round"/>
<path d="M133.751 134.209L140.335 133.179C140.651 133.112 140.864 132.818 140.829 132.498C140.766 132.179 140.47 131.962 140.148 131.998L133.545 133.028C133.227 133.091 133.009 133.387 133.045 133.709C133.108 134.038 133.42 134.259 133.751 134.209Z" fill="white"/>
<path d="M133.751 134.209L140.335 133.179C140.651 133.112 140.864 132.818 140.829 132.498C140.766 132.179 140.47 131.962 140.148 131.998L133.545 133.028C133.227 133.091 133.009 133.387 133.045 133.709C133.108 134.038 133.42 134.259 133.751 134.209Z" stroke="#8D96B2" stroke-miterlimit="10" strokeLinecap="round"/>
<path d="M132.184 140.475C132.357 141.684 133.478 142.523 134.687 142.35C135.896 142.176 136.736 141.054 136.562 139.846C136.388 138.637 135.267 137.798 134.058 137.971C134.047 137.973 134.037 137.975 134.026 137.976C132.832 138.165 132.012 139.278 132.184 140.475Z" fill="#8D96B2"/>
<path d="M132.184 140.475C132.357 141.684 133.478 142.523 134.687 142.35C135.896 142.176 136.736 141.054 136.562 139.846C136.388 138.637 135.267 137.798 134.058 137.971C134.047 137.973 134.037 137.975 134.026 137.976C132.832 138.165 132.012 139.278 132.184 140.475Z" stroke="#8D96B2" stroke-miterlimit="10" strokeLinecap="round"/>
<path d="M134.594 139.788L141.203 138.763C141.519 138.698 141.733 138.402 141.697 138.082C141.634 137.764 141.338 137.547 141.016 137.582L134.413 138.613C134.095 138.676 133.878 138.972 133.913 139.294C133.979 139.61 134.273 139.823 134.594 139.788Z" fill="white"/>
<path d="M134.594 139.788L141.203 138.763C141.519 138.698 141.733 138.402 141.697 138.082C141.634 137.764 141.338 137.547 141.016 137.582L134.413 138.613C134.095 138.676 133.878 138.972 133.913 139.294C133.979 139.61 134.273 139.823 134.594 139.788Z" stroke="#8D96B2" stroke-miterlimit="10" strokeLinecap="round"/>
<path d="M134.851 141.418L141.454 140.388C141.77 140.325 141.986 140.033 141.954 139.713C141.891 139.395 141.595 139.178 141.273 139.213L134.663 140.243C134.348 140.31 134.134 140.605 134.17 140.925C134.236 141.24 134.53 141.454 134.851 141.418Z" fill="white"/>
<path d="M134.851 141.418L141.454 140.388C141.77 140.325 141.986 140.033 141.954 139.713C141.891 139.395 141.595 139.178 141.273 139.213L134.663 140.243C134.348 140.31 134.134 140.605 134.17 140.925C134.236 141.24 134.53 141.454 134.851 141.418Z" stroke="#8D96B2" stroke-miterlimit="10" strokeLinecap="round"/>
<path d="M133.3 147.684C133.472 148.893 134.59 149.735 135.8 149.563C137.009 149.392 137.85 148.273 137.68 147.064C137.508 145.855 136.389 145.013 135.18 145.184C135.178 145.184 135.177 145.185 135.175 145.185C133.968 145.359 133.13 146.476 133.3 147.684Z" fill="#8D96B2"/>
<path d="M133.3 147.684C133.472 148.893 134.59 149.735 135.8 149.563C137.009 149.392 137.85 148.273 137.68 147.064C137.508 145.855 136.389 145.013 135.18 145.184C135.178 145.184 135.177 145.185 135.175 145.185C133.968 145.359 133.13 146.476 133.3 147.684Z" stroke="#8D96B2" stroke-miterlimit="10" strokeLinecap="round"/>
<path d="M135.719 146.997L142.322 145.972C142.64 145.909 142.858 145.614 142.822 145.291C142.759 144.973 142.463 144.756 142.141 144.791L135.531 145.822C135.216 145.888 135.003 146.183 135.038 146.503C135.104 146.819 135.398 147.032 135.719 146.997Z" fill="white"/>
<path d="M135.719 146.997L142.322 145.972C142.64 145.909 142.858 145.614 142.822 145.291C142.759 144.973 142.463 144.756 142.141 144.791L135.531 145.822C135.216 145.888 135.003 146.183 135.038 146.503C135.104 146.819 135.398 147.032 135.719 146.997Z" stroke="#8D96B2" stroke-miterlimit="10" strokeLinecap="round"/>
<path d="M135.968 148.627L142.578 147.597C142.893 147.531 143.107 147.235 143.072 146.916C143.024 146.595 142.725 146.374 142.404 146.421C142.402 146.421 142.399 146.422 142.397 146.423L135.787 147.453C135.469 147.497 135.247 147.79 135.291 148.108C135.291 148.114 135.293 148.121 135.294 148.128C135.357 148.443 135.648 148.659 135.968 148.627Z" fill="white"/>
<path d="M135.968 148.627L142.578 147.597C142.893 147.531 143.107 147.235 143.072 146.916C143.024 146.595 142.725 146.374 142.404 146.421C142.402 146.421 142.399 146.422 142.397 146.423L135.787 147.453C135.469 147.497 135.247 147.79 135.291 148.108C135.291 148.114 135.293 148.121 135.294 148.128C135.357 148.443 135.648 148.659 135.968 148.627Z" stroke="#8D96B2" stroke-miterlimit="10" strokeLinecap="round"/>
<path d="M38.8447 25.4198L40.4877 25.1699" stroke="#7F869E" stroke-miterlimit="10" strokeLinecap="round"/>
<path d="M42.1289 24.9143L43.7719 24.6582" stroke="#7F869E" stroke-miterlimit="10" strokeLinecap="round"/>
<path d="M22.7871 30.2371L24.4239 29.981" stroke="#7F869E" stroke-miterlimit="10" strokeLinecap="round"/>
<path d="M26.0674 29.7249L27.7104 29.4688" stroke="#7F869E" stroke-miterlimit="10" strokeLinecap="round"/>
<path d="M29.3535 29.2185L30.9903 28.9624" stroke="#7F869E" stroke-miterlimit="10" strokeLinecap="round"/>
<path d="M32.6318 28.7058L34.2748 28.4497" stroke="#7F869E" stroke-miterlimit="10" strokeLinecap="round"/>
<path d="M35.9121 28.1936L37.5551 27.9375" stroke="#7F869E" stroke-miterlimit="10" strokeLinecap="round"/>
<path d="M39.1992 27.6819L40.836 27.4258" stroke="#7F869E" stroke-miterlimit="10" strokeLinecap="round"/>
<path d="M42.4795 27.1693L44.1225 26.9194" stroke="#7F869E" stroke-miterlimit="10" strokeLinecap="round"/>
<path d="M23.1377 32.4983L24.7807 32.2422" stroke="#7F869E" stroke-miterlimit="10" strokeLinecap="round"/>
<path d="M26.418 31.9856L28.061 31.7295" stroke="#7F869E" stroke-miterlimit="10" strokeLinecap="round"/>
<path d="M29.7031 31.474L31.3461 31.2241" stroke="#7F869E" stroke-miterlimit="10" strokeLinecap="round"/>
<path d="M32.9834 30.9676L34.6264 30.7114" stroke="#7F869E" stroke-miterlimit="10" strokeLinecap="round"/>
<path d="M36.2695 30.4558L37.9063 30.1997" stroke="#7F869E" stroke-miterlimit="10" strokeLinecap="round"/>
<path d="M39.5498 29.9431L41.1928 29.687" stroke="#7F869E" stroke-miterlimit="10" strokeLinecap="round"/>
<path d="M42.8281 29.4309L44.4711 29.1748" stroke="#7F869E" stroke-miterlimit="10" strokeLinecap="round"/>
<path d="M23.4883 34.76L25.1313 34.5039" stroke="#7F869E" stroke-miterlimit="10" strokeLinecap="round"/>
<path d="M26.7734 34.2478L28.4102 33.9917" stroke="#7F869E" stroke-miterlimit="10" strokeLinecap="round"/>
<path d="M30.0537 33.7351L31.6967 33.479" stroke="#7F869E" stroke-miterlimit="10" strokeLinecap="round"/>
<path d="M33.3398 33.2293L34.9766 32.9731" stroke="#7F869E" stroke-miterlimit="10" strokeLinecap="round"/>
<path d="M36.6182 32.7171L38.2612 32.4609" stroke="#7F869E" stroke-miterlimit="10" strokeLinecap="round"/>
<path d="M39.8984 32.2044L41.5414 31.9482" stroke="#7F869E" stroke-miterlimit="10" strokeLinecap="round"/>
<path d="M43.1855 31.6922L44.8223 31.436" stroke="#7F869E" stroke-miterlimit="10" strokeLinecap="round"/>
<path d="M23.8438 37.0213L25.4805 36.7651" stroke="#7F869E" stroke-miterlimit="10" strokeLinecap="round"/>
<path d="M27.124 36.5091L28.767 36.2529" stroke="#7F869E" stroke-miterlimit="10" strokeLinecap="round"/>
<path d="M30.4043 35.9969L32.0473 35.7407" stroke="#7F869E" stroke-miterlimit="10" strokeLinecap="round"/>
<path d="M33.6885 35.4843L35.3315 35.2344" stroke="#7F869E" stroke-miterlimit="10" strokeLinecap="round"/>
<path d="M36.9688 34.9783L38.6118 34.7222" stroke="#7F869E" stroke-miterlimit="10" strokeLinecap="round"/>
<path d="M40.2559 34.4661L41.8926 34.21" stroke="#7F869E" stroke-miterlimit="10" strokeLinecap="round"/>
<path d="M43.5361 33.9544L45.1791 33.6982" stroke="#7F869E" stroke-miterlimit="10" strokeLinecap="round"/>
<path d="M21.9707 25.0076L23.6137 24.7515" stroke="#7F869E" stroke-miterlimit="10" strokeLinecap="round"/>
<path d="M25.2549 24.4955L26.8979 24.2456" stroke="#7F869E" stroke-miterlimit="10" strokeLinecap="round"/>
<path d="M28.5352 23.9895L30.1782 23.7334" stroke="#7F869E" stroke-miterlimit="10" strokeLinecap="round"/>
<path d="M31.8223 23.4778L33.459 23.2217" stroke="#7F869E" stroke-miterlimit="10" strokeLinecap="round"/>
<path d="M35.1025 22.9651L36.7455 22.709" stroke="#7F869E" stroke-miterlimit="10" strokeLinecap="round"/>
<path d="M38.3867 22.453L40.0235 22.2031" stroke="#7F869E" stroke-miterlimit="10" strokeLinecap="round"/>
<path d="M41.667 21.9471L43.31 21.6909" stroke="#7F869E" stroke-miterlimit="10" strokeLinecap="round"/>
<path d="M43.6475 22.9399L22.0322 26.3009" stroke="#7F869E" stroke-miterlimit="10" strokeLinecap="round"/>
<path d="M28.0283 21.172L36.3683 19.8726" stroke="#7F869E" stroke-miterlimit="10" strokeLinecap="round"/>
<path d="M17.6719 44.4866L109.649 30.1743" stroke="#7F869E" stroke-miterlimit="10" strokeLinecap="round"/>
<path d="M18.8271 51.8958L110.798 37.5835" stroke="#7F869E" stroke-miterlimit="10" strokeLinecap="round"/>
<path d="M19.9775 59.2991L111.955 44.9868" stroke="#7F869E" stroke-miterlimit="10" strokeLinecap="round"/>
<path d="M21.1318 66.7078L113.103 52.3955" stroke="#7F869E" stroke-miterlimit="10" strokeLinecap="round"/>
<path d="M22.2822 74.117L114.26 59.8047" stroke="#7F869E" stroke-miterlimit="10" strokeLinecap="round"/>
<path d="M23.4375 81.527L115.409 67.2085" stroke="#7F869E" stroke-miterlimit="10" strokeLinecap="round"/>
<path d="M24.5879 88.929L116.565 74.6167" stroke="#7F869E" stroke-miterlimit="10" strokeLinecap="round"/>
<path d="M25.7422 96.3387L117.713 82.0264" stroke="#7F869E" stroke-miterlimit="10" strokeLinecap="round"/>
<path d="M26.8926 103.747L118.87 89.4351" stroke="#7F869E" stroke-miterlimit="10" strokeLinecap="round"/>
<path d="M28.0479 111.156L120.019 96.8379" stroke="#7F869E" stroke-miterlimit="10" strokeLinecap="round"/>
<path d="M29.1982 118.559L121.176 104.247" stroke="#7F869E" stroke-miterlimit="10" strokeLinecap="round"/>
<path d="M30.3525 125.969L122.33 111.656" stroke="#7F869E" stroke-miterlimit="10" strokeLinecap="round"/>
<path d="M31.5029 133.379L123.48 119.066" stroke="#7F869E" stroke-miterlimit="10" strokeLinecap="round"/>
<path d="M34.2441 150.97L126.215 136.659" stroke="#7F869E" stroke-miterlimit="10" strokeLinecap="round"/>
<path d="M35.1582 156.836L127.129 142.518" stroke="#7F869E" stroke-miterlimit="10" strokeLinecap="round"/>
<path d="M36.0684 162.696L128.039 148.384" stroke="#7F869E" stroke-miterlimit="10" strokeLinecap="round"/>
<path d="M30.7897 51.6148C30.7897 51.6148 22.9433 60.1047 27.4787 58.7678C32.0142 57.4309 38.2177 48.5599 36.8995 52.2458C35.5813 55.9316 35.6501 58.443 37.7803 55.9004C39.9106 53.3578 41.1039 52.8517 40.6728 54.1824C40.2417 55.513 42.0034 54.6072 42.0034 54.6072C42.0034 54.6072 46.3765 52.0334 45.9204 53.3578C45.4644 54.6822 45.1895 54.7384 46.4265 54.5447L50.4371 53.92C50.4371 53.92 50.1748 54.2823 53.8793 53.7014C57.5839 53.1204 59.027 52.2708 60.8824 51.9834" stroke="#7F869E" stroke-miterlimit="10" strokeLinecap="round"/>
<path d="M27.2305 63.2094C27.2305 63.2094 33.2777 59.4237 34.0399 60.2545C34.8021 61.0854 33.7588 62.5098 36.4888 61.7726C39.2188 61.0354 41.7052 58.749 41.8989 59.9797C42.0925 61.2103 43.848 60.3108 43.848 60.3108L45.391 60.0671C45.391 60.0671 48.2148 59.9484 49.0956 59.4924C49.9765 59.0363 50.8886 54.7882 50.2139 60.5856C49.5392 66.383 47.1715 61.3728 52.8002 58.9176C58.4289 56.4625 59.4722 59.1425 59.4722 59.1425C60.095 59.002 60.701 58.7921 61.2776 58.5178C62.4583 58.0118 63.5016 56.5874 64.6199 57.6807C65.7381 58.7739 67.7435 55.3005 67.7435 55.3005C68.5237 55.4461 69.294 55.6422 70.0487 55.8877C70.7721 56.1408 71.5405 56.2363 72.3039 56.1689C73.2472 56.2051 74.1912 56.1632 75.1276 56.0439C76.3771 55.8503 77.4079 54.4259 78.4262 54.9007C79.4444 55.3755 80.9875 51.0212 80.2128 56.2001C79.4382 61.379 74.428 63.7405 76.4645 60.5731C78.2625 57.8069 80.5708 55.4086 83.2677 53.5076C85.5479 51.8895 86.2101 52.102 86.7099 53.2889C87.2097 54.4759 87.8282 54.3759 89.0151 53.8762C90.2021 53.3764 89.1838 52.9016 90.2021 53.3764C90.8868 53.7656 91.6983 53.8668 92.4573 53.6575C93.3882 53.5138 89.0464 56.0877 93.3882 53.5138C97.73 50.94 99.2793 40.5821 97.0053 46.3108C94.7313 52.0395 95.5934 53.4888 98.6358 52.6954" stroke="#7F869E" stroke-miterlimit="10" strokeLinecap="round"/>
<path d="M27.8848 73.561C27.8848 73.561 35.3064 66.4017 34.8504 65.5209C34.3943 64.64 32.0267 65.6458 30.2962 68.7569C28.5657 71.868 29.7839 73.5797 34.4381 70.9622C39.0922 68.3446 32.3203 71.5869 37.0994 71.8118C41.8785 72.0367 43.2903 68.9506 43.434 69.8752C43.5777 70.7997 41.9847 70.731 45.7392 70.4999C49.4938 70.2687 47.6571 68.6257 51.5054 68.9693C55.3536 69.3129 57.0654 68.101 57.0654 68.101L59.533 67.7199C59.533 67.7199 54.5353 68.1759 61.0261 67.1701C67.5169 66.1643 70.3656 58.1304 67.242 62.4098C64.1184 66.6891 65.5865 68.0322 68.7913 66.2768L71.9961 64.5151C71.9961 64.5151 76.0443 60.0921 74.1327 66.0769C72.221 72.0617 69.9596 67.6761 77.0751 64.6713C84.1906 61.6664 84.0095 64.5401 86.3834 63.5405C88.7573 62.541 88.37 60.0671 89.9443 62.0349C91.5186 64.0028 91.4193 63.3906 93.8863 63.0033C96.3539 62.6159 95.6923 62.3785 97.8532 62.0724L102.514 61.3353" stroke="#7F869E" stroke-miterlimit="10" strokeLinecap="round"/>
<path d="M29.1367 95.8133C29.1367 95.8133 34.3088 92.4773 35.1334 87.6045C35.958 82.7323 31.8786 89.0607 32.3222 95.9457C32.7657 102.829 30.3418 93.4081 37.5573 91.0217C44.7728 88.6359 36.9326 93.0208 37.7322 94.1453C38.5319 95.2704 44.4479 90.5725 44.3792 92.1593C44.3105 93.7461 45.6293 94.1778 49.2652 91.0854C52.901 87.9924 46.9843 88.5859 46.7032 90.8536C46.6088 91.6145 46.7438 92.0169 47.1342 92.153" stroke="#8D96B2" stroke-miterlimit="10" strokeLinecap="round"/>
<path d="M123.069 201.244L92.1319 147.767C92.1319 147.767 88.671 123.472 81.2937 113.695C73.9151 103.919 63.5704 96.7845 69.5733 91.7867C75.5769 86.789 90.8137 77.2308 93.9373 77.843C97.0609 78.4552 118.089 89.0879 124.031 90.8059C129.972 92.5239 132.052 95.0477 131.165 100.177C130.278 105.306 129.915 141.271 131.671 146.237C133.426 151.203 152.955 186.6 152.955 186.6" fill="white"/>
<path d="M123.069 201.244L92.1319 147.767C92.1319 147.767 88.671 123.472 81.2937 113.695C73.9151 103.919 63.5704 96.7845 69.5733 91.7867C75.5769 86.789 90.8137 77.2308 93.9373 77.843C97.0609 78.4552 118.089 89.0879 124.031 90.8059C129.972 92.5239 132.052 95.0477 131.165 100.177C130.278 105.306 129.915 141.271 131.671 146.237C133.426 151.203 152.955 186.6 152.955 186.6" stroke="#8D96B2" stroke-miterlimit="10" strokeLinecap="round"/>
<path d="M61.421 92.7488C66.2738 92.4802 70.9705 90.9471 75.0467 88.3008C81.9992 83.8528 79.7752 83.0157 79.7752 83.0157C79.7752 83.0157 83.3861 81.9037 85.6107 81.0728C87.4743 80.2407 89.246 79.2143 90.8959 78.0117C90.8959 78.0117 99.7981 83.8528 103.965 85.5083C105.96 86.3561 108.014 87.0576 110.112 87.6074L115.928 95.2408C112.658 96.7833 109.87 99.1872 107.863 102.195C104.527 107.192 100.366 113.871 98.4043 114.689C96.4434 115.507 97.2924 116.357 88.6712 113.02C80.0501 109.684 60.865 97.7591 61.421 92.7488Z" fill="#4EBFC9"/>
<path d="M76.8271 95.3161C76.8271 95.3161 83.5116 94.4921 88.222 85.9141C88.222 85.9141 93.7695 88.263 99.5419 86.7581" stroke="#8D96B2" stroke-miterlimit="10" strokeLinecap="round"/>
<path d="M94.9511 89.1133C94.9511 89.1133 91.7282 97.6469 98.5251 108.936" stroke="#8D96B2" stroke-miterlimit="10" strokeLinecap="round"/>
<path d="M87.8096 89.894C87.8096 89.894 91.1762 94.0359 91.7266 97.6468" stroke="#8D96B2" stroke-miterlimit="10" strokeLinecap="round"/>
<path d="M94.1143 112.927C94.1143 112.927 99.7367 109.372 102.729 105.674C105.722 101.976 107.071 98.0769 111.788 96.522" stroke="#8D96B2" stroke-miterlimit="10" strokeLinecap="round"/>
<path d="M88.2216 85.9144L86.8535 84.2964" stroke="#8D96B2" stroke-miterlimit="10" strokeLinecap="round"/>
<path d="M56.6113 92.5989C56.6113 92.5989 50.8014 91.4244 47.0156 92.4615C47.0156 92.4615 52.5881 95.1915 55.9678 95.5851L56.6113 92.5989Z" fill="#8D96B2"/>
<path d="M56.6113 92.5989C56.6113 92.5989 50.8014 91.4244 47.0156 92.4615C47.0156 92.4615 52.5881 95.1915 55.9678 95.5851L56.6113 92.5989Z" stroke="#8D96B2" stroke-miterlimit="10" strokeLinecap="round"/>
<path d="M139.399 103.931L57.0364 91.6932C56.2224 91.5727 55.4496 92.0887 55.2497 92.8864L54.8749 94.4732C54.6556 95.326 55.1685 96.1937 56.0206 96.4136C56.0425 96.4192 56.0643 96.4236 56.0868 96.4286L137.581 114.046C140.36 114.646 143.099 112.88 143.699 110.101C143.723 109.992 143.743 109.883 143.759 109.773C144.172 106.96 142.225 104.346 139.412 103.933L139.399 103.931Z" fill="#7F869E"/>
<path d="M139.399 103.931L126.948 102.057C124.615 103.471 123.47 106.235 124.118 108.886C124.328 109.798 124.738 110.65 125.318 111.384L137.556 114.027C140.335 114.627 143.074 112.861 143.674 110.082C143.698 109.974 143.718 109.864 143.734 109.754C144.137 106.951 142.199 104.349 139.399 103.931Z" fill="#8D96B2"/>
<path d="M139.399 103.931L126.948 102.057C124.615 103.471 123.47 106.235 124.118 108.886C124.328 109.798 124.738 110.65 125.318 111.384L137.556 114.027C140.335 114.627 143.074 112.861 143.674 110.082C143.698 109.974 143.718 109.864 143.734 109.754C144.137 106.951 142.199 104.349 139.399 103.931Z" stroke="#8D96B2" stroke-miterlimit="10" strokeLinecap="round"/>
<path d="M106.063 111.615C106.063 111.615 98.9786 113.277 95.8113 112.528C92.6446 111.778 86.1775 102.681 81.7364 99.6888C77.294 96.6964 74.5896 95.9843 69.9424 95.2846C65.2938 94.5849 62.0834 96.8283 63.0705 101.083C64.0575 105.337 69.4601 110.49 73.4027 113.901C77.344 117.312 81.1055 123.148 83.4413 129.926C85.7777 136.704 87.2396 142.933 92.4372 149.78C97.6355 156.627 104.12 159.444 106.3 159.825" fill="white"/>
<path d="M106.063 111.615C106.063 111.615 98.9786 113.277 95.8113 112.528C92.6446 111.778 86.1775 102.681 81.7364 99.6888C77.294 96.6964 74.5896 95.9843 69.9424 95.2846C65.2938 94.5849 62.0834 96.8283 63.0705 101.083C64.0575 105.337 69.4601 110.49 73.4027 113.901C77.344 117.312 81.1055 123.148 83.4413 129.926C85.7777 136.704 87.2396 142.933 92.4372 149.78C97.6355 156.627 104.12 159.444 106.3 159.825" stroke="#8D96B2" stroke-miterlimit="10" strokeLinecap="round"/>
<path d="M66.6434 104.132C66.6434 104.132 66.9807 100.464 72.0035 97.0472C72.0035 97.0472 68.6487 94.8419 66.3498 95.2355C64.0508 95.6291 63.145 96.8848 62.7951 99.2087C62.4453 101.533 66.6434 104.132 66.6434 104.132Z" fill="white"/>
<path d="M66.6434 104.132C66.6434 104.132 66.9807 100.464 72.0035 97.0472C72.0035 97.0472 68.6487 94.8419 66.3498 95.2355C64.0508 95.6291 63.145 96.8848 62.7951 99.2087C62.4453 101.533 66.6434 104.132 66.6434 104.132Z" stroke="#8D96B2" stroke-miterlimit="10" strokeLinecap="round"/>
<path d="M69.9434 108.023C70.3288 108.412 70.7617 108.752 71.2303 109.035" stroke="#8D96B2" stroke-miterlimit="10" strokeLinecap="round"/>
<path d="M73.6181 99.3589C73.6181 99.3589 68.283 102.107 69.1389 106.393" stroke="#8D96B2" stroke-miterlimit="10" strokeLinecap="round"/>
<path d="M131.091 98.565L131.94 95.8225C132.79 93.0862 132.146 89.0512 129.816 86.7578C127.485 84.4651 119.196 80.4294 116.772 78.3116C114.348 76.1938 96.2062 63.2372 92.9827 64.0306C89.7591 64.8239 85.8796 69.4344 82.5936 71.9957C79.307 74.5571 67.5254 84.2027 67.5254 84.2027C67.5254 84.2027 59.2479 87.7886 59.6227 89.4753C59.9975 91.1621 61.7155 93.318 66.9069 93.1487C72.0977 92.9806 80.7507 87.8073 82.0626 87.0458C83.3745 86.283 91.539 80.9354 91.539 80.9354C93.6543 83.0276 96.0825 84.7775 98.7363 86.1206C102.591 87.9073 103.109 88.0885 103.109 88.0885C103.109 88.0885 104.115 91.7431 106.945 93.6172" fill="white"/>
<path d="M131.091 98.565L131.94 95.8225C132.79 93.0862 132.146 89.0512 129.816 86.7578C127.485 84.4651 119.196 80.4294 116.772 78.3116C114.348 76.1938 96.2062 63.2372 92.9827 64.0306C89.7591 64.8239 85.8796 69.4344 82.5936 71.9957C79.307 74.5571 67.5254 84.2027 67.5254 84.2027C67.5254 84.2027 59.2479 87.7886 59.6227 89.4753C59.9975 91.1621 61.7155 93.318 66.9069 93.1487C72.0977 92.9806 80.7507 87.8073 82.0626 87.0458C83.3745 86.283 91.539 80.9354 91.539 80.9354C93.6543 83.0276 96.0825 84.7775 98.7363 86.1206C102.591 87.9073 103.109 88.0885 103.109 88.0885C103.109 88.0885 104.115 91.7431 106.945 93.6172" stroke="#8D96B2" stroke-miterlimit="10" strokeLinecap="round"/>
<path d="M59.623 89.4749C59.623 89.4749 60.4602 89.8747 62.2344 89.1625C64.0092 88.4504 67.457 84.6521 67.4951 84.1648C67.532 83.6775 59.9042 86.8823 59.623 89.4749Z" fill="white"/>
<path d="M59.623 89.4749C59.623 89.4749 60.4602 89.8747 62.2344 89.1625C64.0092 88.4504 67.457 84.6521 67.4951 84.1648C67.532 83.6775 59.9042 86.8823 59.623 89.4749Z" stroke="#8D96B2" stroke-miterlimit="10" strokeLinecap="round"/>
<path d="M91.21 74.8885C91.2887 74.5149 91.3868 74.1463 91.5036 73.7827" stroke="#8D96B2" stroke-miterlimit="10" strokeLinecap="round"/>
<path d="M91.5395 80.9477C91.0634 79.4471 90.8829 77.8685 91.0085 76.2998" stroke="#8D96B2" stroke-miterlimit="10" strokeLinecap="round"/>
<path d="M126.154 158.078C127.524 156.713 129.739 156.715 131.107 158.081L148.387 175.332C149.75 176.693 149.752 178.902 148.391 180.267L148.385 180.272C147.015 181.637 144.8 181.636 143.431 180.269L126.152 163.019C124.788 161.657 124.787 159.448 126.148 158.084L126.154 158.078Z" fill="#2260FE"/>
<path d="M129.841 161.646C140.511 151.868 141.251 135.311 131.494 124.662C121.736 114.014 105.177 113.308 94.507 123.085C83.837 132.862 83.096 149.421 92.8537 160.069C102.611 170.718 119.171 171.423 129.841 161.646Z" fill="white"/>
<path d="M129.841 161.646C140.511 151.868 141.251 135.311 131.494 124.662C121.736 114.014 105.177 113.308 94.507 123.085C83.837 132.862 83.096 149.421 92.8537 160.069C102.611 170.718 119.171 171.423 129.841 161.646Z" stroke="#2260FE" strokeWidth="5.44301" stroke-miterlimit="10"/>
<path d="M121.838 148.243L119.359 150.72L112.98 144.341L106.648 150.672L104.156 148.18L110.487 141.848L104.107 135.468L106.586 132.99L112.965 139.37L119.297 133.039L121.789 135.531L115.458 141.863L121.838 148.243Z" fill="#2260FE"/>
</svg>
