<svg width="179" height="182" viewBox="0 0 179 182" fill="none" xmlns="http://www.w3.org/2000/svg">
<path d="M163.394 57.4946V73.3742C163.394 75.4366 161.712 77.1269 159.658 77.1269H18.6673C16.6139 77.1269 14.9312 75.4366 14.9312 73.3742V57.4946C14.9312 55.4164 16.6139 53.7417 18.6673 53.7417H159.658C161.712 53.7417 163.394 55.4164 163.394 57.4946Z" fill="#C0C5D1"/>
<path d="M154.301 77.127V157.905C154.301 161.782 151.166 164.93 147.306 164.93H31.0185C27.1587 164.93 24.0244 161.782 24.0244 157.905V77.127H154.301Z" fill="#C0C5D1"/>
<path d="M154.301 83.5471H24.0244V77.127H154.301V83.5471Z" fill="#8D96B2"/>
<path d="M107.057 94.3092V97.7829C107.057 98.9305 106.13 99.8608 104.988 99.8608H73.3373C72.195 99.8608 71.2686 98.9305 71.2686 97.7829V94.3092C71.2686 93.1617 72.195 92.2312 73.3373 92.2312H104.988C106.13 92.2312 107.057 93.1617 107.057 94.3092Z" fill="#8D96B2"/>
<path d="M62.8246 136.722V150.694C62.8246 151.795 61.929 152.695 60.8328 152.695H34.5539C33.4578 152.695 32.5776 151.795 32.5776 150.694V136.722C32.5776 135.621 33.4578 134.722 34.5539 134.722H60.8328C61.929 134.722 62.8246 135.621 62.8246 136.722Z" fill="white"/>
<path d="M141.458 142.452H136.934V151.116C136.934 151.504 136.62 151.819 136.234 151.819H133.311C132.925 151.819 132.611 151.504 132.611 151.116V142.452H128.09C127.639 142.452 127.413 141.904 127.732 141.584L134.417 134.869C134.614 134.672 134.932 134.672 135.128 134.869L141.815 141.586C142.133 141.906 141.908 142.452 141.458 142.452Z" fill="#495257"/>
<path d="M125.496 142.452H120.973V151.116C120.973 151.504 120.659 151.819 120.273 151.819H117.35C116.963 151.819 116.65 151.504 116.65 151.116V142.452H112.129C111.678 142.452 111.452 141.904 111.771 141.584L118.456 134.869C118.652 134.672 118.97 134.672 119.166 134.869L125.854 141.586C126.172 141.906 125.947 142.452 125.496 142.452Z" fill="#495257"/>
<path d="M114.668 35.4278C114.668 49.1496 103.593 60.2734 89.9319 60.2734C76.2705 60.2734 65.1958 49.1496 65.1958 35.4278C65.1958 21.706 76.2705 10.5823 89.9319 10.5823C103.593 10.5823 114.668 21.706 114.668 35.4278Z" fill="#2260FE"/>
<path d="M101.215 43.3427C102.178 44.3094 102.178 45.8789 101.215 46.8457C100.253 47.7983 98.6901 47.7983 97.7415 46.8457L89.8875 38.9569L82.0197 46.8457C81.0712 47.7983 79.5086 47.7983 78.5461 46.8316C77.5836 45.8789 77.5836 44.3094 78.5461 43.3427L86.4 35.454L78.5461 27.5653C77.5836 26.5986 77.5836 25.0291 78.5461 24.0765C79.5086 23.1097 81.0712 23.1097 82.0197 24.0624L89.8875 31.9651L97.7415 24.0624C98.6901 23.1097 100.253 23.1097 101.215 24.0624C102.178 25.0291 102.178 26.5986 101.215 27.5653L93.3612 35.454L101.215 43.3427Z" fill="white"/>
<mask id="mask0_1199_8014" style="mask-type:luminance" maskUnits="userSpaceOnUse" x="1" y="0" width="178" height="182">
<path d="M178.739 0.42627H1.12305V181.255H178.739V0.42627Z" fill="white"/>
</mask>
<g mask="url(#mask0_1199_8014)">
</g>
</svg>
