<svg width="214" height="213" viewBox="0 0 214 213" fill="none" xmlns="http://www.w3.org/2000/svg">
<mask id="mask0_1198_7480" style="mask-type:luminance" maskUnits="userSpaceOnUse" x="0" y="0" width="214" height="213">
<path d="M213.097 0.0351562H0.424316V212.708H213.097V0.0351562Z" fill="white"/>
</mask>
<g mask="url(#mask0_1198_7480)">
<path d="M44.6001 159.065H149.353" stroke="#8D96B2" strokeWidth="3.66117" strokeLinecap="round" sstrokelinejoin="round"/>
<path d="M150.065 183.804H45.8351C42.7628 183.804 40.2734 181.315 40.2734 178.242L58.0707 41.2589C58.0707 38.1867 60.5601 35.6973 63.6324 35.6973H165.638C168.709 35.6973 171.199 38.1867 171.199 41.2589L155.627 178.242C155.627 181.315 153.136 183.804 150.065 183.804Z" fill="white"/>
<path d="M150.065 183.804H45.8351C42.7628 183.804 40.2734 181.315 40.2734 178.242L58.0707 41.2589C58.0707 38.1867 60.5601 35.6973 63.6324 35.6973H165.638C168.709 35.6973 171.199 38.1867 171.199 41.2589L155.627 178.242C155.627 181.315 153.136 183.804 150.065 183.804Z" stroke="#8D96B2" strokeWidth="3.66117" strokeLinecap="round" sstrokelinejoin="round"/>
<path d="M162.258 62.9339C162.258 62.9339 153.448 136.504 148.491 167.046C147.949 170.395 145.028 172.849 141.59 172.854C124.621 172.879 68.4333 172.292 51.2112 172.084C47.9879 172.046 45.4106 169.528 45.4451 166.458L65.3999 61.8829L162.258 62.9339Z" fill="#8D96B2"/>
<path d="M65.3587 45.6561L65.3671 44.8776C65.3842 43.3104 66.686 42.053 68.2743 42.0703L158.47 43.049C160.057 43.0662 161.331 44.3515 161.314 45.9187L161.306 46.6973" fill="white"/>
<path d="M65.3587 45.6561L65.3671 44.8776C65.3842 43.3104 66.686 42.053 68.2743 42.0703L158.47 43.049C160.057 43.0662 161.331 44.3515 161.314 45.9187L161.306 46.6973" stroke="#8D96B2" strokeWidth="3.66117" strokeLinecap="round" sstrokelinejoin="round"/>
<path d="M63.3281 46.3359L162.426 47.4113C163.05 47.418 163.549 47.9218 163.541 48.5369C163.418 57.9208 160.391 124.17 131.274 155.506C124.492 162.806 114.827 166.838 104.791 166.729L26.3508 165.878C25.3287 165.867 24.8415 164.631 25.5964 163.952C36.1134 154.479 64.2498 102.859 62.2035 47.5574C62.1795 46.8975 62.6585 46.3287 63.3281 46.3359Z" fill="white"/>
<path d="M63.3281 46.3359L162.426 47.4113C163.05 47.418 163.549 47.9218 163.541 48.5369C163.418 57.9208 160.391 124.17 131.274 155.506C124.492 162.806 114.827 166.838 104.791 166.729L26.3508 165.878C25.3287 165.867 24.8415 164.631 25.5964 163.952C36.1134 154.479 64.2498 102.859 62.2035 47.5574C62.1795 46.8975 62.6585 46.3287 63.3281 46.3359Z" stroke="#8D96B2" strokeWidth="3.66117" strokeLinecap="round" sstrokelinejoin="round"/>
<path d="M110.909 166.28C118.797 165.094 126.133 160.686 131.594 154.807C144.483 140.939 152.035 120.225 156.465 100.631C144.51 125.54 134.458 125.991 134.458 125.991C138.043 159.751 111.632 166.084 110.909 166.28Z" fill="white"/>
<path d="M110.909 166.28C118.797 165.094 126.133 160.686 131.594 154.807C144.483 140.939 152.035 120.225 156.465 100.631C144.51 125.54 134.458 125.991 134.458 125.991C138.043 159.751 111.632 166.084 110.909 166.28Z" stroke="#8D96B2" strokeWidth="3.66117" strokeLinecap="round" sstrokelinejoin="round"/>
<path d="M68.0449 113.206L135.435 114.176" stroke="#8D96B2" strokeWidth="3.66117" strokeLinecap="round" sstrokelinejoin="round"/>
<path d="M63.3945 129.678L96.8077 130.159" stroke="#8D96B2" strokeWidth="3.66117" strokeLinecap="round" sstrokelinejoin="round"/>
<path d="M106.544 130.299L125.049 130.565" stroke="#8D96B2" strokeWidth="3.66117" strokeLinecap="round" sstrokelinejoin="round"/>
<path d="M55.2935 141.893L88.7066 142.374" stroke="#8D96B2" strokeWidth="3.66117" strokeLinecap="round" sstrokelinejoin="round"/>
<path d="M109.768 64.0569C110.5 64.6003 120.22 72.0679 124.34 75.2687C124.588 75.4603 124.76 75.7465 124.968 75.9886L124.962 76.4146C124.938 76.4577 124.912 76.4996 124.891 76.5438C124.568 77.2388 123.923 77.4053 123.318 76.9383C121.717 75.7049 109.581 66.3292 109.484 66.2588C108.535 66.9493 99.2256 73.7247 95.5134 76.4268C95.4313 76.4868 95.3503 76.5479 95.2639 76.6023C94.7857 76.9013 94.2553 76.8092 93.9389 76.3752C93.6116 75.9277 93.6841 75.3737 94.1375 75.0231C94.6279 74.6453 109.077 64.1782 109.28 64.0499L109.768 64.0569ZM121.135 95.4524C121.855 95.4628 122.247 95.0791 122.258 94.3528C122.328 89.5558 122.395 84.7599 122.468 79.963C122.474 79.5415 122.319 79.2244 121.986 78.9671C118.033 75.9077 114.086 72.8429 110.135 69.7802C109.644 69.3993 109.248 69.3992 108.75 69.7624C104.729 72.6982 100.712 75.6373 96.6885 78.5663C96.3085 78.8433 96.1324 79.1757 96.1256 79.645C96.065 84.401 95.9943 89.1568 95.9258 93.9126C95.9142 94.7223 96.2726 95.0945 97.0778 95.1061C99.6993 95.1439 118.462 95.4151 121.135 95.4524Z" fill="#89A6EF"/>
<path d="M109.255 82.7441C106.841 82.7093 104.857 84.6375 104.822 87.051L104.704 95.2169L113.444 95.3427L113.562 87.1768C113.596 84.7633 111.668 82.7788 109.255 82.7441Z" fill="white"/>
<path d="M87.3062 94.9653L129.015 95.5657" stroke="#8D96B2" strokeWidth="3.66117" strokeLinecap="round" sstrokelinejoin="round"/>
<path d="M136.796 32.7184H122.628C122.628 27.5761 118.459 23.4082 113.317 23.4082C108.173 23.4082 104.004 27.5761 104.004 32.7184H89.8355C89.2215 32.7184 88.7231 33.2167 88.7231 33.8307V44.2544C88.7231 48.657 92.2937 52.2265 96.6963 52.2265H129.935C134.338 52.2265 137.908 48.657 137.908 44.2544V33.8307C137.908 33.2167 137.41 32.7184 136.796 32.7184ZM108.882 32.7184C108.882 30.2691 110.867 28.2835 113.317 28.2835C115.765 28.2835 117.752 30.2691 117.752 32.7184H108.882Z" fill="#89A6EF"/>
<path d="M146.134 176.308L156.248 159.04" stroke="white" strokeWidth="19.9872" strokeLinecap="round"/>
<path d="M151.523 173.723L156.248 158.964" stroke="white" strokeWidth="19.9872" strokeLinecap="round"/>
<path d="M155.915 165.555C157.065 164.409 158.925 164.411 160.073 165.557L174.578 180.039C175.723 181.181 175.724 183.036 174.581 184.181L174.576 184.186C173.427 185.331 171.567 185.33 170.418 184.183L155.913 169.702C154.768 168.559 154.767 166.705 155.91 165.56L155.915 165.555Z" fill="#2260FE"/>
<path d="M159.01 168.55C167.967 160.342 168.588 146.443 160.397 137.504C152.206 128.565 138.306 127.973 129.349 136.18C120.392 144.388 119.77 158.287 127.961 167.226C136.152 176.165 150.053 176.757 159.01 168.55Z" fill="white"/>
<path d="M159.01 168.55C167.967 160.342 168.588 146.443 160.397 137.504C152.206 128.565 138.306 127.973 129.349 136.18C120.392 144.388 119.77 158.287 127.961 167.226C136.152 176.165 150.053 176.757 159.01 168.55Z" stroke="#2260FE" strokeWidth="7.2" stroke-miterlimit="10"/>
<path d="M152.292 157.299L150.211 159.379L144.856 154.024L139.541 159.338L137.449 157.246L142.764 151.931L137.408 146.575L139.489 144.495L144.844 149.851L150.159 144.536L152.251 146.628L146.936 151.944L152.292 157.299Z" fill="#2260FE"/>
</g>
</svg>
