<svg width="23" height="21" viewBox="0 0 23 21" fill="none" xmlns="http://www.w3.org/2000/svg">
<path d="M22.0229 16.6527C22.0229 17.4212 21.5947 18.901 20.6339 19.7139C20.4415 19.8619 20.2481 19.7784 20.3326 19.5628C20.6127 18.8778 21.2544 17.2933 20.9531 16.9286C20.7417 16.6516 19.8643 16.6717 19.1159 16.7362C18.7735 16.7795 18.4743 16.7996 18.2407 16.8472C18.0261 16.8651 17.9817 16.6749 18.1974 16.5269C18.4743 16.3313 18.7735 16.1833 19.117 16.0745C20.3326 15.7108 21.7385 15.9297 21.9393 16.1622C21.9774 16.2066 22.0239 16.3313 22.0239 16.6516L22.0229 16.6527ZM19.9922 18.0205C19.7131 18.2337 19.42 18.4279 19.1149 18.6019C16.8718 19.9496 13.967 20.6557 11.4428 20.6557C7.38051 20.6557 3.74741 19.1579 0.990604 16.6516C0.75488 16.4592 0.950436 16.1802 1.22633 16.3313C4.19666 18.0649 7.8731 19.1135 11.6796 19.1135C14.2243 19.1063 16.7457 18.6275 19.1159 17.7013C19.2872 17.6368 19.4796 17.5491 19.6476 17.4878C20.0356 17.3133 20.377 17.7446 19.9922 18.0205ZM13.4702 6.36118C13.4702 5.26078 13.5135 4.61281 13.1489 4.0568C12.8254 3.59909 12.2683 3.32426 11.4914 3.36759C10.6479 3.41411 9.74197 3.96695 9.51048 4.98066C9.46608 5.21321 9.32972 5.44154 9.0496 5.49122L6.47461 5.16353C6.29068 5.12125 6.01162 4.98066 6.10253 4.61281C6.65537 1.70379 9.14156 0.690071 11.4914 0.553711H12.0442C13.3338 0.553711 14.9903 0.922623 16.0505 1.88983C17.3369 3.09065 17.2006 4.70371 17.2006 6.45631V10.6074C17.2006 11.8526 17.7048 12.4044 18.2132 13.0534C18.3506 13.2849 18.3971 13.5576 18.1657 13.7458C17.4999 14.3398 16.8244 14.9226 16.1393 15.4941C15.9553 15.6347 15.6234 15.6495 15.4945 15.5417C14.6805 14.8599 14.4818 14.4815 13.9776 13.7891C13.1002 14.7098 12.3645 15.2183 11.4882 15.4941C10.872 15.6506 10.2382 15.7273 9.60244 15.7225C7.39319 15.7225 5.64271 14.3451 5.64271 11.6211C5.64271 9.45518 6.7949 7.9827 8.49676 7.2861C10.1986 6.58845 12.6721 6.36646 13.4692 6.36223L13.4702 6.36118ZM12.9649 11.8494C13.5146 10.9277 13.4692 10.1729 13.4692 8.48269C12.781 8.48269 12.0886 8.53026 11.4914 8.67085C10.3868 8.99113 9.51048 9.68668 9.51048 11.1602C9.51048 12.3124 10.1098 13.0967 11.1225 13.0967C11.262 13.0967 11.3846 13.0798 11.4914 13.0492C12.1996 12.8526 12.6415 12.4974 12.9649 11.8494Z" fill="#17171A"/>
</svg>
