<svg width="22" height="23" viewBox="0 0 22 23" fill="none" xmlns="http://www.w3.org/2000/svg">
<path d="M0.145996 18.5436H9.14095V20.3426H0.145996V18.5436ZM0.145996 13.1466H9.14095V14.9456H0.145996V13.1466ZM19.9349 9.54867H1.94499C1.46786 9.54867 1.01028 9.35913 0.672908 9.02175C0.335532 8.68438 0.145996 8.2268 0.145996 7.74967V2.3527C0.145996 1.87558 0.335532 1.418 0.672908 1.08062C1.01028 0.743247 1.46786 0.553711 1.94499 0.553711H19.9349C20.412 0.553711 20.8696 0.743247 21.207 1.08062C21.5443 1.418 21.7339 1.87558 21.7339 2.3527V7.74967C21.7339 8.2268 21.5443 8.68438 21.207 9.02175C20.8696 9.35913 20.412 9.54867 19.9349 9.54867ZM1.94499 2.3527V7.74967H19.9349V2.3527H1.94499ZM19.9349 22.1416H14.5379C14.0608 22.1416 13.6032 21.9521 13.2658 21.6147C12.9285 21.2773 12.7389 20.8197 12.7389 20.3426V14.9456C12.7389 14.4685 12.9285 14.0109 13.2658 13.6736C13.6032 13.3362 14.0608 13.1466 14.5379 13.1466H19.9349C20.412 13.1466 20.8696 13.3362 21.207 13.6736C21.5443 14.0109 21.7339 14.4685 21.7339 14.9456V20.3426C21.7339 20.8197 21.5443 21.2773 21.207 21.6147C20.8696 21.9521 20.412 22.1416 19.9349 22.1416ZM14.5379 14.9456V20.3426H19.9349V14.9456H14.5379Z" fill="#17171A"/>
</svg>
