<svg width="23" height="23" viewBox="0 0 23 23" fill="none" xmlns="http://www.w3.org/2000/svg">
<path d="M5.05342 19.9828L2.57081 22.4654C2.229 22.8072 1.83754 22.8835 1.39643 22.6943C0.956036 22.5057 0.73584 22.1686 0.73584 21.6829V4.87129C0.73584 4.27762 0.947401 3.76923 1.37052 3.3461C1.79293 2.9237 2.30096 2.7125 2.89463 2.7125H13.7965C13.7246 3.0723 13.6886 3.4321 13.6886 3.79189C13.6886 4.15169 13.7246 4.51149 13.7965 4.87129H2.89463V17.824H20.1649V9.08093C20.5787 8.99098 20.9655 8.86937 21.3253 8.71609C21.6851 8.56354 22.0179 8.36133 22.3237 8.10947V17.824C22.3237 18.4177 22.1125 18.9261 21.6901 19.3492C21.267 19.7716 20.7586 19.9828 20.1649 19.9828H5.05342ZM19.0855 7.03008C18.1861 7.03008 17.4215 6.71525 16.7918 6.08561C16.1622 5.45596 15.8474 4.69139 15.8474 3.79189C15.8474 2.8924 16.1622 2.12783 16.7918 1.49818C17.4215 0.868534 18.1861 0.553711 19.0855 0.553711C19.985 0.553711 20.7496 0.868534 21.3793 1.49818C22.0089 2.12783 22.3237 2.8924 22.3237 3.79189C22.3237 4.69139 22.0089 5.45596 21.3793 6.08561C20.7496 6.71525 19.985 7.03008 19.0855 7.03008Z" fill="#17171A"/>
</svg>
