<svg width="21" height="24" viewBox="0 0 21 24" fill="none" xmlns="http://www.w3.org/2000/svg">
<path d="M14.7671 17.5534L15.7294 15.5133C15.7554 15.455 15.7977 15.4054 15.8513 15.3707C15.9048 15.3359 15.9673 15.3174 16.0311 15.3174C16.095 15.3174 16.1575 15.3359 16.211 15.3707C16.2646 15.4054 16.3069 15.455 16.3329 15.5133L17.2963 17.5534L19.4475 17.8826C19.7238 17.925 19.8339 18.2807 19.6349 18.484L18.0776 20.072L18.4449 22.3143C18.4915 22.6023 18.2025 22.8225 17.9558 22.6859L16.0311 21.6272L14.1064 22.6859C13.8587 22.8225 13.5708 22.6023 13.6173 22.3143L13.9847 20.072L12.4284 18.484C12.2273 18.2807 12.3384 17.925 12.6148 17.8826L14.7671 17.5534Z" stroke="black" strokeWidth="1.5" strokeLinecap="round" sstrokelinejoin="round"/>
<path d="M18.6778 12.1406V5.52273C18.6778 5.43916 18.6614 5.3564 18.6294 5.27919C18.5975 5.20198 18.5506 5.13184 18.4914 5.07279L15.1587 1.74004C15.0397 1.62088 14.8782 1.55386 14.7098 1.55371H2.37398C2.20551 1.55371 2.04394 1.62063 1.92482 1.73976C1.80569 1.85889 1.73877 2.02045 1.73877 2.18892V22.0922C1.73877 22.2607 1.80569 22.4223 1.92482 22.5414C2.04394 22.6605 2.20551 22.7275 2.37398 22.7275H9.14958" stroke="black" strokeWidth="1.5" strokeLinecap="round" sstrokelinejoin="round"/>
<path d="M14.4429 1.55371V5.15325C14.4429 5.32172 14.5098 5.48329 14.6289 5.60241C14.748 5.72154 14.9096 5.78846 15.0781 5.78846H18.6776" stroke="black" strokeWidth="1.5" strokeLinecap="round" sstrokelinejoin="round"/>
</svg>
