<svg width="23" height="20" viewBox="0 0 23 20" fill="none" xmlns="http://www.w3.org/2000/svg">
<path d="M12.6575 16.2925C12.6575 15.9255 12.7007 15.5693 12.7547 15.2131H2.94297V4.41914L11.5781 9.81611L20.2133 4.41914V9.91326C20.9904 10.0428 21.7136 10.3126 22.3721 10.6904V2.26035C22.3721 1.07302 21.4006 0.101562 20.2133 0.101562H2.94297C1.75563 0.101562 0.78418 1.07302 0.78418 2.26035V15.2131C0.78418 16.4004 1.75563 17.3719 2.94297 17.3719H12.7547C12.7007 17.0157 12.6575 16.6595 12.6575 16.2925ZM20.2133 2.26035L11.5781 7.65732L2.94297 2.26035H20.2133ZM18.0545 13.0543V15.2131H22.3721V17.3719H18.0545V19.5307L14.8163 16.2925L18.0545 13.0543Z" fill="#17171A"/>
</svg>
