<svg width="21" height="21" viewBox="0 0 21 21" fill="none" xmlns="http://www.w3.org/2000/svg">
<path d="M19.4753 0.553711H1.2883C0.850919 0.553711 0.497559 0.907072 0.497559 1.34445V19.5314C0.497559 19.9688 0.850919 20.3221 1.2883 20.3221H19.4753C19.9126 20.3221 20.266 19.9688 20.266 19.5314V1.34445C20.266 0.907072 19.9126 0.553711 19.4753 0.553711ZM18.6845 18.7407H14.1353V12.6668H16.7052L17.0907 9.68426H14.1353V7.77907C14.1353 6.9142 14.375 6.32609 15.613 6.32609H17.192V3.65736C16.9177 3.62029 15.9812 3.53874 14.889 3.53874C12.6107 3.53874 11.0514 4.92995 11.0514 7.48255V9.68178H8.47659V12.6643H11.0539V18.7407H2.07903V2.13519H18.6845V18.7407Z" fill="#17171A"/>
</svg>
