<svg width="23" height="23" viewBox="0 0 23 23" fill="none" xmlns="http://www.w3.org/2000/svg">
<path d="M11.7036 6.16656C10.6789 6.16656 9.67718 6.47043 8.82515 7.03973C7.97312 7.60904 7.30905 8.41822 6.91691 9.36494C6.52476 10.3117 6.42216 11.3534 6.62207 12.3584C6.82199 13.3635 7.31544 14.2867 8.04003 15.0112C8.76462 15.7358 9.6878 16.2293 10.6928 16.4292C11.6979 16.6291 12.7396 16.5265 13.6863 16.1344C14.6331 15.7422 15.4422 15.0781 16.0115 14.2261C16.5808 13.3741 16.8847 12.3724 16.8847 11.3477C16.8847 9.97355 16.3388 8.65571 15.3672 7.68407C14.3956 6.71243 13.0777 6.16656 11.7036 6.16656ZM11.7036 14.8017C11.0205 14.8017 10.3527 14.5991 9.78464 14.2196C9.21662 13.8401 8.77391 13.3006 8.51248 12.6695C8.25105 12.0383 8.18264 11.3438 8.31592 10.6738C8.44919 10.0038 8.77816 9.38832 9.26122 8.90526C9.74428 8.42221 10.3597 8.09324 11.0298 7.95996C11.6998 7.82669 12.3943 7.89509 13.0254 8.15652C13.6566 8.41795 14.196 8.86066 14.5756 9.42868C14.9551 9.9967 15.1577 10.6645 15.1577 11.3477C15.1548 12.2629 14.79 13.1398 14.1429 13.7869C13.4957 14.434 12.6188 14.7989 11.7036 14.8017ZM16.4529 0.553711H6.95428C5.35115 0.553711 3.81368 1.19055 2.68009 2.32414C1.54651 3.45772 0.909668 4.99519 0.909668 6.59832V16.097C0.909668 17.7001 1.54651 19.2376 2.68009 20.3712C3.81368 21.5048 5.35115 22.1416 6.95428 22.1416H16.4529C18.0561 22.1416 19.5935 21.5048 20.7271 20.3712C21.8607 19.2376 22.4976 17.7001 22.4976 16.097V6.59832C22.4976 4.99519 21.8607 3.45772 20.7271 2.32414C19.5935 1.19055 18.0561 0.553711 16.4529 0.553711ZM20.7705 16.097C20.7705 16.664 20.6588 17.2254 20.4419 17.7493C20.2249 18.2731 19.9069 18.7491 19.5059 19.15C19.105 19.5509 18.629 19.8689 18.1052 20.0859C17.5814 20.3029 17.0199 20.4146 16.4529 20.4146H6.95428C6.38728 20.4146 5.82584 20.3029 5.30201 20.0859C4.77818 19.8689 4.30221 19.5509 3.90129 19.15C3.50036 18.7491 3.18233 18.2731 2.96536 17.7493C2.74838 17.2254 2.6367 16.664 2.6367 16.097V6.59832C2.6367 5.45323 3.09159 4.35503 3.90129 3.54533C4.71099 2.73563 5.80918 2.28074 6.95428 2.28074H16.4529C17.0199 2.28074 17.5814 2.39242 18.1052 2.6094C18.629 2.82638 19.105 3.14441 19.5059 3.54533C19.9069 3.94626 20.2249 4.42222 20.4419 4.94605C20.6588 5.46989 20.7705 6.03133 20.7705 6.59832V16.097ZM18.6117 5.7348C18.6117 5.99099 18.5358 6.24141 18.3934 6.45442C18.2511 6.66743 18.0488 6.83345 17.8121 6.93148C17.5755 7.02952 17.315 7.05517 17.0638 7.00519C16.8125 6.95521 16.5817 6.83185 16.4006 6.6507C16.2194 6.46955 16.0961 6.23876 16.0461 5.9875C15.9961 5.73624 16.0218 5.47581 16.1198 5.23912C16.2178 5.00244 16.3838 4.80015 16.5968 4.65782C16.8099 4.5155 17.0603 4.43953 17.3165 4.43953C17.66 4.43953 17.9895 4.576 18.2324 4.81891C18.4753 5.06182 18.6117 5.39128 18.6117 5.7348Z" fill="#17171A"/>
</svg>
