<svg width="20" height="24" viewBox="0 0 20 24" fill="none" xmlns="http://www.w3.org/2000/svg">
<path d="M10.8139 21.6494V16.7812H9.19117V21.6494H1.07764V23.2721H18.9274V21.6494H10.8139Z" fill="#17171A"/>
<path d="M4.32307 12.7243C4.77117 12.7243 5.13443 12.361 5.13443 11.9129C5.13443 11.4648 4.77117 11.1016 4.32307 11.1016C3.87497 11.1016 3.51172 11.4648 3.51172 11.9129C3.51172 12.361 3.87497 12.7243 4.32307 12.7243Z" fill="#17171A"/>
<path d="M18.1159 15.1578H1.88882C1.45858 15.1574 1.04609 14.9863 0.741868 14.6821C0.437644 14.3778 0.266543 13.9653 0.266113 13.5351V10.2897C0.266543 9.85946 0.437644 9.44697 0.741868 9.14275C1.04609 8.83852 1.45858 8.66742 1.88882 8.66699H18.1159C18.5461 8.66742 18.9586 8.83852 19.2628 9.14275C19.5671 9.44697 19.7382 9.85946 19.7386 10.2897V13.5351C19.7382 13.9653 19.5671 14.3778 19.2628 14.6821C18.9586 14.9863 18.5461 15.1574 18.1159 15.1578ZM1.88882 10.2897V13.5351H18.1159V10.2897H1.88882Z" fill="#17171A"/>
<path d="M4.32307 4.61001C4.77117 4.61001 5.13443 4.24676 5.13443 3.79866C5.13443 3.35056 4.77117 2.9873 4.32307 2.9873C3.87497 2.9873 3.51172 3.35056 3.51172 3.79866C3.51172 4.24676 3.87497 4.61001 4.32307 4.61001Z" fill="#17171A"/>
<path d="M18.1159 7.04454H1.88882C1.45858 7.04411 1.04609 6.87301 0.741868 6.56878C0.437644 6.26456 0.266543 5.85207 0.266113 5.42183V2.17642C0.266543 1.74618 0.437644 1.33369 0.741868 1.02947C1.04609 0.725242 1.45858 0.554141 1.88882 0.553711H18.1159C18.5461 0.554141 18.9586 0.725242 19.2628 1.02947C19.5671 1.33369 19.7382 1.74618 19.7386 2.17642V5.42183C19.7382 5.85207 19.5671 6.26456 19.2628 6.56878C18.9586 6.87301 18.5461 7.04411 18.1159 7.04454ZM1.88882 2.17642V5.42183H18.1159V2.17642H1.88882Z" fill="#17171A"/>
</svg>
