<svg width="23" height="24" viewBox="0 0 23 24" fill="none" xmlns="http://www.w3.org/2000/svg">
<path d="M22.3218 0.553711H8.40958C6.37386 0.553711 4.42152 1.3624 2.98205 2.80187C1.54257 4.24134 0.733887 6.19368 0.733887 8.2294C0.733887 10.2651 1.54257 12.2175 2.98205 13.6569C4.42152 15.0964 6.37386 15.9051 8.40958 15.9051H11.7677V23.5808H18.4839V2.47263H22.3218V0.553711ZM11.7677 13.9862H8.40958C6.88279 13.9862 5.41853 13.3797 4.33893 12.3001C3.25933 11.2205 2.65281 9.7562 2.65281 8.2294C2.65281 6.70261 3.25933 5.23836 4.33893 4.15875C5.41853 3.07915 6.88279 2.47263 8.40958 2.47263H11.7677V13.9862ZM16.565 21.6619H13.6866V2.47263H16.565V21.6619Z" fill="#17171A"/>
</svg>
