<svg width="22" height="24" viewBox="0 0 22 24" fill="none" xmlns="http://www.w3.org/2000/svg">
<path d="M15.9402 9.62487L11.2837 6.86977C11.1641 6.79891 11.0276 6.76158 10.8886 6.76172C10.7495 6.76186 10.6131 6.79945 10.4936 6.87054L5.83711 9.62565C5.72101 9.69413 5.62479 9.79171 5.55796 9.90877C5.49113 10.0258 5.456 10.1583 5.45605 10.2931V15.6481C5.45605 15.9228 5.60118 16.1766 5.83711 16.3155L10.4936 19.0706C10.613 19.1422 10.7495 19.1801 10.8887 19.1801C11.0278 19.1801 11.1644 19.1422 11.2837 19.0706L15.9402 16.3155C16.0563 16.247 16.1525 16.1495 16.2194 16.0324C16.2862 15.9153 16.3213 15.7829 16.3213 15.6481V10.2931C16.3213 10.1582 16.2862 10.0256 16.2194 9.90845C16.1525 9.79127 16.0563 9.69353 15.9402 9.62487ZM14.7691 15.2057L10.8887 17.5014L7.00823 15.2057V10.7355L10.8887 8.43979L14.7691 10.7355V15.2057Z" fill="#17171A"/>
<path d="M3.12827 15.4422V8.3689L7.94001 5.52532L7.15073 4.1889L1.95716 7.25832C1.84105 7.32698 1.74484 7.42472 1.67802 7.5419C1.61119 7.65907 1.57607 7.79164 1.5761 7.92653V15.4422C1.12346 15.6017 0.731284 15.8974 0.453381 16.2887C0.175477 16.68 0.0254641 17.1477 0.0239258 17.6276C0.0239258 18.9113 1.06854 19.9559 2.35219 19.9559C3.63583 19.9559 4.68045 18.9113 4.68045 17.6276C4.67891 17.1477 4.52889 16.68 4.25099 16.2887C3.97309 15.8974 3.58091 15.6017 3.12827 15.4422ZM2.35219 18.4037C2.15236 18.3948 1.96368 18.3091 1.82544 18.1645C1.68719 18.02 1.61004 17.8276 1.61004 17.6276C1.61004 17.4276 1.68719 17.2353 1.82544 17.0907C1.96368 16.9461 2.15236 16.8605 2.35219 16.8515C2.55201 16.8605 2.74069 16.9461 2.87893 17.0907C3.01718 17.2353 3.09433 17.4276 3.09433 17.6276C3.09433 17.8276 3.01718 18.02 2.87893 18.1645C2.74069 18.3091 2.55201 18.3948 2.35219 18.4037ZM19.4261 15.2994C18.1424 15.2994 17.0978 16.344 17.0978 17.6276C17.0978 17.9016 17.1537 18.1608 17.2414 18.4053L10.8891 22.1584L5.91908 19.2217L5.1298 20.5581L10.4941 23.7277C10.6136 23.7988 10.75 23.8363 10.889 23.8365C11.0281 23.8366 11.1646 23.7993 11.2842 23.7284L18.2379 19.6191C18.5871 19.8278 18.9907 19.9559 19.4261 19.9559C20.7097 19.9559 21.7544 18.9113 21.7544 17.6276C21.7544 16.344 20.7097 15.2994 19.4261 15.2994ZM19.4261 18.4037C19.2263 18.3948 19.0376 18.3091 18.8993 18.1645C18.7611 18.02 18.6839 17.8276 18.6839 17.6276C18.6839 17.4276 18.7611 17.2353 18.8993 17.0907C19.0376 16.9461 19.2263 16.8605 19.4261 16.8515C19.6259 16.8605 19.8146 16.9461 19.9528 17.0907C20.0911 17.2353 20.1682 17.4276 20.1682 17.6276C20.1682 17.8276 20.0911 18.02 19.9528 18.1645C19.8146 18.3091 19.6259 18.3948 19.4261 18.4037ZM10.8891 5.21023C11.4565 5.21023 11.9695 4.99836 12.3738 4.66076L18.65 8.36968V13.7472H20.2022V7.92653C20.2022 7.79164 20.1671 7.65907 20.1003 7.5419C20.0334 7.42472 19.9372 7.32698 19.8211 7.25832L13.1724 3.32977C13.2003 3.18464 13.2174 3.03564 13.2174 2.88197C13.2174 1.59832 12.1728 0.553711 10.8891 0.553711C9.60549 0.553711 8.56088 1.59832 8.56088 2.88197C8.56088 4.16562 9.60549 5.21023 10.8891 5.21023ZM10.8891 2.10588C11.0429 2.10573 11.1932 2.15118 11.321 2.23649C11.4489 2.32179 11.5486 2.44311 11.6075 2.5851C11.6664 2.72708 11.6818 2.88335 11.6519 3.03411C11.6219 3.18488 11.5479 3.32338 11.4392 3.43207C11.3305 3.54076 11.1921 3.61477 11.0413 3.64472C10.8905 3.67467 10.7342 3.65922 10.5923 3.60033C10.4503 3.54143 10.329 3.44174 10.2437 3.31386C10.1584 3.18599 10.1129 3.03569 10.1131 2.88197C10.1131 2.45357 10.4615 2.10588 10.8891 2.10588Z" fill="#17171A"/>
</svg>
