<svg width="25" height="24" viewBox="0 0 25 24" fill="none" xmlns="http://www.w3.org/2000/svg">
<path d="M22.4752 0.553711H12.4502C12.0072 0.554153 11.5825 0.730328 11.2692 1.04357C10.956 1.35682 10.7798 1.78154 10.7794 2.22454V10.5787H2.42522C1.98223 10.5791 1.5575 10.7553 1.24426 11.0685C0.931012 11.3818 0.754837 11.8065 0.754395 12.2495V23.9453H24.146V2.22454C24.1455 1.78154 23.9694 1.35682 23.6561 1.04357C23.3429 0.730328 22.9182 0.554153 22.4752 0.553711ZM6.60229 22.2745V16.4266H9.94395V22.2745H6.60229ZM22.4752 22.2745H11.6148V15.5912C11.6148 15.3696 11.5268 15.1571 11.3701 15.0004C11.2134 14.8438 11.0009 14.7557 10.7794 14.7557H5.76688C5.54531 14.7557 5.33282 14.8438 5.17615 15.0004C5.01948 15.1571 4.93146 15.3696 4.93146 15.5912V22.2745H2.42522V12.2495H12.4502V2.22454H22.4752V22.2745Z" fill="#17171A"/>
<path d="M14.121 5.56619H15.7918V7.23702H14.121V5.56619ZM19.1335 5.56619H20.8043V7.23702H19.1335V5.56619ZM14.121 10.5787H15.7918V12.2495H14.121V10.5787ZM19.1335 10.5787H20.8043V12.2495H19.1335V10.5787ZM14.121 15.5912H15.7918V17.262H14.121V15.5912ZM19.1335 15.5912H20.8043V17.262H19.1335V15.5912ZM3.67834 8.90785C2.90286 8.90785 2.15915 8.59979 1.6108 8.05145C1.06245 7.5031 0.754395 6.75938 0.754395 5.9839C0.754395 5.20842 1.06245 4.4647 1.6108 3.91636C2.15915 3.36801 2.90286 3.05995 3.67834 3.05995H4.20215C4.38813 2.34307 4.80666 1.70813 5.39217 1.2546C5.97768 0.801068 6.69709 0.554567 7.43771 0.553711H9.10853V2.22454H7.43771C6.99471 2.22498 6.56999 2.40116 6.25674 2.7144C5.9435 3.02765 5.76732 3.45237 5.76688 3.89537V4.73078H3.67834C3.346 4.73078 3.02726 4.86281 2.79225 5.09781C2.55725 5.33282 2.42522 5.65155 2.42522 5.9839C2.42522 6.31625 2.55725 6.63499 2.79225 6.86999C3.02726 7.105 3.346 7.23702 3.67834 7.23702H9.10853V8.90785H3.67834Z" fill="#17171A"/>
</svg>
