<svg width="14" height="16" viewBox="0 0 14 16" fill="none" xmlns="http://www.w3.org/2000/svg">
<path d="M1.89126 16C1.45126 16 1.07446 15.8435 0.76086 15.5304C0.447793 15.2168 0.29126 14.84 0.29126 14.4V3.2H1.89126V14.4H10.6913V16H1.89126ZM5.09126 12.8C4.65126 12.8 4.27473 12.6435 3.96166 12.3304C3.64806 12.0168 3.49126 11.64 3.49126 11.2V1.6C3.49126 1.16 3.64806 0.7832 3.96166 0.4696C4.27473 0.156533 4.65126 0 5.09126 0H12.2913C12.7313 0 13.1081 0.156533 13.4217 0.4696C13.7347 0.7832 13.8913 1.16 13.8913 1.6V11.2C13.8913 11.64 13.7347 12.0168 13.4217 12.3304C13.1081 12.6435 12.7313 12.8 12.2913 12.8H5.09126ZM5.09126 11.2H12.2913V1.6H5.09126V11.2Z" fill="#94A3B8"/>
</svg>
