<svg width="12" height="8" viewBox="0 0 12 8" fill="none" xmlns="http://www.w3.org/2000/svg">
<path d="M6.07158 7.24482C5.93825 7.24482 5.80892 7.21982 5.68358 7.16982C5.55825 7.11982 5.45425 7.05316 5.37158 6.96982L0.771582 2.36982C0.588248 2.18649 0.496582 1.95316 0.496582 1.66982C0.496582 1.38649 0.588248 1.15316 0.771582 0.969824C0.954915 0.78649 1.18825 0.694824 1.47158 0.694824C1.75492 0.694824 1.98825 0.78649 2.17158 0.969824L6.07158 4.86982L9.97158 0.969824C10.1549 0.78649 10.3882 0.694824 10.6716 0.694824C10.9549 0.694824 11.1882 0.78649 11.3716 0.969824C11.5549 1.15316 11.6466 1.38649 11.6466 1.66982C11.6466 1.95316 11.5549 2.18649 11.3716 2.36982L6.77158 6.96982C6.67158 7.06982 6.56325 7.14082 6.44658 7.18282C6.32992 7.22482 6.20492 7.24549 6.07158 7.24482Z" fill="#0F172A"/>
</svg>
