<svg width="25" height="25" viewBox="0 0 25 25" fill="none" xmlns="http://www.w3.org/2000/svg">
<path fill-rule="evenodd" clip-rule="evenodd" d="M0.71875 0.715332H24.7188V24.7153H0.71875V0.715332Z" fill="black"/>
<path d="M10.4839 8.59375H14.9261V16.7365H10.4839V8.59375Z" fill="#FF5F00"/>
<path d="M10.766 12.6663C10.7632 11.8856 10.936 11.1142 11.2716 10.4093C11.6072 9.70436 12.097 9.0839 12.7047 8.59381C10.6235 6.92581 7.6347 7.16881 5.8377 9.15256C4.0407 11.1363 4.04145 14.1948 5.8377 16.1786C7.63395 18.1623 10.6227 18.4053 12.7047 16.7366C12.0973 16.2467 11.6076 15.6266 11.2721 14.9221C10.9365 14.2176 10.7635 13.4467 10.766 12.6663Z" fill="#EB001B"/>
<path d="M20.9193 12.6663C20.9193 14.6486 19.8093 16.4568 18.0618 17.3238C16.3143 18.1908 14.2331 17.9621 12.7046 16.7366C13.312 16.2464 13.8016 15.6262 14.1374 14.9216C14.4732 14.217 14.6466 13.4461 14.6448 12.6656C14.6448 11.0771 13.9293 9.5756 12.7046 8.59385C14.2331 7.3691 16.3121 7.1411 18.0611 8.00735C19.8101 8.8736 20.9193 10.6818 20.9193 12.6648V12.6663Z" fill="#F79E1B"/>
</svg>
