<svg width="39" height="17" viewBox="0 0 39 17" fill="none" xmlns="http://www.w3.org/2000/svg">
<path fill-rule="evenodd" clip-rule="evenodd" d="M38.7002 8.95809C38.7002 9.21142 38.6791 9.76031 38.6791 9.89753H33.5174C33.6335 11.1431 34.5413 11.502 35.5652 11.502C36.6102 11.502 37.4335 11.2803 38.1513 10.9214V13.0325C37.4335 13.4336 36.4835 13.7186 35.2274 13.7186C32.6519 13.7186 30.8574 12.1142 30.8574 8.93697C30.8574 6.25586 32.3774 4.12364 34.8896 4.12364C37.3913 4.12364 38.7002 6.25586 38.7002 8.95809ZM33.4858 7.95531H36.2091C36.2091 6.76253 35.523 6.26642 34.8791 6.26642C34.2141 6.26642 33.4858 6.76253 33.4858 7.95531ZM26.783 4.12364C28.6302 4.12364 30.3719 5.79142 30.3824 8.85253C30.3824 12.1986 28.6619 13.7186 26.7724 13.7186C25.8435 13.7186 25.2841 13.3281 24.9041 13.0536L24.8935 16.0409L22.2546 16.6003V4.29253H24.5769L24.7141 4.94698C25.0835 4.6092 25.7485 4.12364 26.783 4.12364ZM26.1496 11.3964C27.1208 11.3964 27.7752 10.3409 27.7752 8.92642C27.7752 7.54364 27.1102 6.46697 26.1496 6.46697C25.548 6.46697 25.168 6.67809 24.8935 6.9842L24.9041 10.9003C25.1574 11.1748 25.5269 11.3964 26.1496 11.3964ZM18.6235 3.50086V1.34753L21.273 0.788086V2.93086L18.6235 3.50086ZM18.6235 4.30309H21.273V13.5392H18.6235V4.30309ZM15.7841 5.0842C16.4069 3.9442 17.6419 4.17642 17.9796 4.30309V6.73086C17.6524 6.61475 16.5969 6.46697 15.9741 7.27975V13.5392H13.3352V4.30309H15.6152L15.7841 5.0842ZM10.5063 2.01253L10.4958 4.30309H12.5013V6.55142H10.4958V10.2986C10.4958 11.8609 12.1635 11.3753 12.5013 11.2381V13.3809C12.153 13.5709 11.5196 13.7292 10.6541 13.7292C9.09186 13.7292 7.9202 12.5786 7.9202 11.0164L7.93075 2.56142L10.5063 2.01253ZM3.37075 6.9842C3.37075 8.16642 7.39242 7.60698 7.40297 10.7525C7.40297 12.642 5.89353 13.7292 3.69797 13.7292C2.7902 13.7292 1.79797 13.5498 0.816306 13.1275V10.6153C1.70297 11.1009 2.82186 11.4598 3.69797 11.4598C4.28908 11.4598 4.71131 11.3014 4.71131 10.8159C4.71131 9.55975 0.700195 10.0242 0.700195 7.11086C0.700195 5.24253 2.1252 4.12364 4.26797 4.12364C5.14408 4.12364 6.00964 4.26086 6.88575 4.6092V7.08975C6.08353 6.65697 5.0702 6.4142 4.26797 6.4142C3.70853 6.4142 3.37075 6.57253 3.37075 6.9842Z" fill="#1A1F36"/>
</svg>
