<svg width="17" height="17" viewBox="0 0 17 17" fill="none" xmlns="http://www.w3.org/2000/svg">
<path d="M6.99191 16.0511H3.33672C2.8637 16.0511 2.45862 15.8825 2.12148 15.5454C1.78434 15.2082 1.61606 14.8035 1.61664 14.331V3.15044H0.756592V1.43036H5.05681V0.570312H10.2171V1.43036H14.5173V3.15044H13.6572V6.84863C13.4136 6.77696 13.1303 6.71589 12.8075 6.66544C12.4847 6.61498 12.1946 6.59004 11.9372 6.59061V3.15044H3.33672V14.331H6.17486C6.26087 14.632 6.37554 14.9296 6.51888 15.2237C6.66222 15.5179 6.8199 15.7936 6.99191 16.0511ZM5.05681 12.6109H5.91685C5.91685 11.7079 6.06019 10.9659 6.34687 10.3851L6.77689 9.51476V4.87053H5.05681V12.6109ZM8.49698 7.66567C8.74066 7.50799 9.01673 7.35032 9.3252 7.19264C9.63367 7.03497 9.93096 6.9203 10.2171 6.84863V4.87053H8.49698V7.66567ZM11.9372 16.9111C10.7474 16.9111 9.73315 16.4917 8.89432 15.6529C8.05549 14.8141 7.63636 13.8001 7.63694 12.6109C7.63694 11.4212 8.05635 10.4069 8.89518 9.56808C9.73401 8.72926 10.748 8.31013 11.9372 8.3107C13.1269 8.3107 14.1412 8.73012 14.98 9.56894C15.8188 10.4078 16.2379 11.4218 16.2374 12.6109C16.2374 13.8006 15.818 14.8149 14.9791 15.6537C14.1403 16.4926 13.1263 16.9117 11.9372 16.9111ZM13.3562 14.632L13.9583 14.03L12.3672 12.4389V10.0308H11.5071V12.7829L13.3562 14.632Z" fill="white"/>
</svg>
